<?xml version="1.0" encoding="utf-8"?>
<!-- Generator: Adobe Illustrator 15.0.2, SVG Export Plug-In . SVG Version: 6.00 Build 0)  -->
<!DOCTYPE svg PUBLIC "-//W3C//DTD SVG 1.1//EN" "http://www.w3.org/Graphics/SVG/1.1/DTD/svg11.dtd">
<svg version="1.1" id="Layer_1" xmlns="http://www.w3.org/2000/svg" xmlns:xlink="http://www.w3.org/1999/xlink" x="0px" y="0px"
	 width="370.333px" height="218px" viewBox="0 0 370.333 218" enable-background="new 0 0 370.333 218" xml:space="preserve">
<path d="M190.598,147.061c-3.079,2.369-8.117,2.369-11.196,0l-43.951-33.84c-3.078-2.37-3.101-6.278-0.048-8.683l44.049-34.693
	c3.052-2.405,8.047-2.405,11.099,0l44.049,34.693c3.051,2.404,3.03,6.312-0.049,8.683L190.598,147.061z M361.54,64.783
	c3.055-2.4,4.33-6.449,2.832-8.995c-1.498-2.546-5.677-3.453-9.286-2.015l-59.34,23.644c-3.61,1.44-7.006-0.532-7.548-4.379
	l-8.928-63.376c-0.542-3.847-3.436-6.996-6.433-6.996c-2.996,0-5.89,3.149-6.432,6.996l-8.927,63.376
	c-0.542,3.847-3.938,5.819-7.548,4.379L191.562,54.16c-3.608-1.437-9.516-1.437-13.126,0l-58.368,23.257
	c-3.609,1.44-7.007-0.532-7.549-4.379l-8.926-63.376c-0.542-3.847-3.436-6.996-6.432-6.996s-5.891,3.149-6.433,6.996l-8.926,63.376
	c-0.542,3.847-3.939,5.819-7.548,4.379l-59.34-23.644c-3.61-1.438-7.79-0.531-9.287,2.015c-1.497,2.546-0.223,6.594,2.832,8.995
	L58.372,104c3.055,2.402,3.055,6.33,0,8.731L8.46,151.946c-3.055,2.401-4.329,6.694-2.832,9.54c1.497,2.848,5.674,3.992,9.28,2.544
	l58.808-23.612c3.606-1.449,6.975,0.519,7.487,4.37l8.491,63.908c0.512,3.851,3.873,7.003,7.468,7.003
	c3.596,0,6.956-3.152,7.468-7.003l8.493-63.908c0.511-3.852,3.881-5.819,7.486-4.37l57.833,23.221c3.607,1.447,9.508,1.447,13.114,0
	l57.834-23.221c3.606-1.449,6.976,0.519,7.487,4.37l8.493,63.908c0.511,3.851,3.871,7.003,7.467,7.003s6.955-3.152,7.468-7.003
	l8.491-63.908c0.512-3.852,3.881-5.819,7.487-4.37l58.808,23.612c3.607,1.448,7.782,0.304,9.28-2.544
	c1.498-2.846,0.223-7.139-2.832-9.54l-49.911-39.216c-3.055-2.401-3.055-6.329,0-8.731L361.54,64.783z"/>
</svg>
