<?xml version="1.0" encoding="UTF-8"?>
<svg width="138px" height="64px" viewBox="0 0 138 64" version="1.1" xmlns="http://www.w3.org/2000/svg" xmlns:xlink="http://www.w3.org/1999/xlink">
    <!-- Generator: Sketch 50 (54983) - http://www.bohemiancoding.com/sketch -->
    <title>Group</title>
    <desc>Created with Sketch.</desc>
    <defs></defs>
    <g id="Page-1" stroke="none" stroke-width="1" fill="none" fill-rule="evenodd">
        <g id="SFPC_sticker2" transform="translate(-26.000000, -48.000000)" fill="#000000">
            <g id="Group" transform="translate(25.000000, 48.000000)">
                <path d="M25.667,19.4761 L20.486,24.2361 C18.876,22.2061 16.916,21.1561 14.606,21.1561 C12.855,21.1561 11.385,22.2061 11.385,24.0971 C11.385,25.5661 12.505,26.6861 14.746,27.5271 L17.266,28.4371 L20.276,29.4871 C20.836,29.6981 21.676,30.1871 22.796,30.8171 C23.987,31.4481 24.827,32.0071 25.317,32.6371 C26.367,33.8271 27.487,35.9281 27.487,38.3781 C27.487,41.6691 26.297,44.3981 23.987,46.7081 C21.676,49.0191 18.666,50.1401 14.956,50.1401 C11.595,50.1401 8.655,49.1601 6.205,47.2691 C3.754,45.3781 2.004,43.1381 0.955,40.6191 L7.885,36.9081 C9.285,40.7591 11.666,42.7181 14.956,42.7181 C17.826,42.7181 19.296,41.4581 19.296,38.9391 C19.296,37.8181 18.736,36.9081 17.406,36.2791 C16.776,35.9281 16.076,35.6471 15.446,35.4381 C14.256,34.8771 11.806,34.1081 10.475,33.5471 C5.995,31.6571 3.334,29.0671 3.334,24.0261 C3.334,21.1561 4.385,18.7761 6.485,16.7461 C8.585,14.7151 11.315,13.7351 14.606,13.7351 C19.296,13.7351 23.427,16.0451 25.667,19.4761" id="Fill-1"></path>
                <path d="M33.9238,21.7163 L33.9238,14.2953 L38.4038,14.2953 L38.4038,12.4753 C38.4038,4.1443 43.0248,0.0133 50.5858,0.0133 C53.2458,0.0133 55.4168,0.5043 57.1668,1.4143 L55.2758,8.4153 C53.7358,7.7843 52.3358,7.4343 51.0758,7.4343 C48.4158,7.4343 47.0858,8.9043 47.0858,11.8453 L47.0858,14.2953 L54.5068,14.2953 L54.5068,21.7163 L47.0858,21.7163 L47.0858,49.5793 L38.4038,49.5793 L38.4038,21.7163 L33.9238,21.7163 Z" id="Fill-3"></path>
                <path d="M88.5957,31.938 C88.5957,28.577 87.8257,25.917 86.2847,24.026 C84.7457,22.136 82.7857,21.156 80.4047,21.156 C78.0247,21.156 76.0647,22.136 74.5247,24.026 C73.0537,25.917 72.2847,28.507 72.2847,31.938 C72.2847,35.368 73.0537,38.029 74.5247,39.917 C76.0647,41.808 78.0247,42.718 80.4047,42.718 C82.7857,42.718 84.7457,41.738 86.2847,39.849 C87.8257,37.959 88.5957,35.297 88.5957,31.938 M73.0537,46.359 L73.0537,63.861 L64.3737,63.861 L64.3737,14.295 L73.0537,14.295 L73.0537,17.936 C74.1747,15.906 77.6047,13.735 81.5957,13.735 C91.9567,13.735 97.6977,20.806 97.6977,31.938 C97.6977,43.068 91.9567,50.14 81.5957,50.14 C78.1647,50.14 74.6647,48.39 73.0537,46.359" id="Fill-5"></path>
                <path d="M138.7871,40.0581 C136.0571,46.7791 130.7361,50.1401 122.7561,50.1401 C117.2251,50.1401 113.0231,48.3901 110.0141,44.9581 C107.0041,41.5291 105.5331,37.1891 105.5331,31.9381 C105.5331,26.6861 107.0041,22.3461 110.0141,18.9161 C113.0231,15.4851 117.2251,13.7351 122.7561,13.7351 C130.7361,13.7351 136.0571,17.0961 138.7871,23.8161 L131.0161,26.9671 C129.1251,23.1161 126.3261,21.1561 122.7561,21.1561 C117.4331,21.1561 114.6351,25.4961 114.6351,31.9381 C114.6351,38.3781 117.4331,42.7181 122.7561,42.7181 C126.3261,42.7181 129.1251,40.7591 131.0161,36.9081 L138.7871,40.0581 Z" id="Fill-7"></path>
            </g>
        </g>
    </g>
</svg>