<?xml version="1.0" encoding="UTF-8"?>
<svg width="235px" height="80px" viewBox="0 0 235 80" version="1.1" xmlns="http://www.w3.org/2000/svg" xmlns:xlink="http://www.w3.org/1999/xlink">
    <!-- Generator: Sketch 49.1 (51147) - http://www.bohemiancoding.com/sketch -->
    <title>libscie-logo</title>
    <desc>Created with Sketch.</desc>
    <defs>
        <linearGradient x1="116%" y1="181.740097%" x2="-9.87519187%" y2="-64.3985507%" id="linearGradient-1">
            <stop stop-color="#646464" offset="0%"></stop>
            <stop stop-color="#E6E8F5" offset="100%"></stop>
        </linearGradient>
    </defs>
    <g id="Page-1" stroke="none" stroke-width="1" fill="none" fill-rule="evenodd">
        <g id="libscie-logo" fill-rule="nonzero">
            <g id="g115">
                <g id="g109">
                    <g id="g105">
                        <path d="M54.2,59.6 C54.1,59.6 54.1,59.6 54,59.6 C54.1,59.6 54.1,59.6 54.2,59.6 Z" id="path6" fill="#000000"></path>
                        <path d="M14.1,36.3 C15.5,38.7 17.6,41.2 20.1,43.5 C17.1,40.5 15.2,37.9 14.1,36.3 Z" id="path8" fill="#000000"></path>
                        <path d="M33.8,63.5 C26.4,60.4 19.9,56.4 14.8,52.1 C19.5,64.2 31.2,72.8 45,72.8 C50.1,72.8 54.9,71.6 59.1,69.5 C51.5,69.2 42.7,67.2 33.8,63.5 Z" id="path15" fill="url(#linearGradient-1)"></path>
                        <path d="M58.2,60 C63.6,60.4 68.4,59.8 72,58.2 C72,58.2 72,58.2 72,58.2 C70.7,58.7 65.7,60.5 58.2,60 Z" id="path17" fill="#000000"></path>
                        <path d="M13.2,34.5 C11.4,30.9 11.1,27.4 12.3,24.4 C12.4,24.2 12.5,24 12.6,23.8 C11.6,24.7 10.9,25.8 10.4,27 C8.8,30.7 9.8,35.1 12.7,39.6 C12.7,37.9 12.9,36.2 13.2,34.5 C13.2,34.5 13.2,34.5 13.2,34.5 Z" id="path19" fill="#000000"></path>
                        <path d="M22.2,17.4 C22.8,16.8 23.4,16.3 24,15.8 C15.2,16.1 8.5,18.8 5.7,23.9 C8.5,21 13,19.3 18.5,18.6 C19.6,18.1 20.8,17.7 22.2,17.4 Z" id="path21" fill="#000000"></path>
                        <path d="M72.3,58.1 C72.3,58.1 72.3,58.1 72.2,58.1 C72.1,58.1 72,58.2 72,58.2 C71.4,59.1 70.8,59.9 70.1,60.8 C72.9,59.6 74.9,57.9 76.1,55.6 C75.1,56.6 73.8,57.4 72.3,58.1 Z" id="path23" fill="#000000"></path>
                        <path d="M77.3,42 C78.1,43.5 78.6,45 78.8,46.4 C81.8,51.4 82.7,56.2 80.9,60.3 C80.8,60.6 80.6,60.9 80.4,61.2 C81.4,60.2 82.2,59 82.8,57.7 C85.1,52.3 82.8,45.5 77.2,39 C77.2,39.4 77.2,39.8 77.2,40.3 C77.4,40.9 77.4,41.5 77.3,42 Z" id="path25" fill="#000000"></path>
                        <path d="M33.6,16.9 C33.6,16.7 33.5,16.6 33.5,16.4 C30.1,15.9 26.9,15.7 24,15.8 C23.4,16.3 22.8,16.9 22.2,17.4 C25.5,16.7 29.4,16.5 33.6,16.9 Z" id="path27" fill="#000000"></path>
                        <path d="M68.2,30.7 C68.1,30.8 68,30.9 67.9,31 C72.2,34.5 75.5,38.3 77.3,42 C77.3,41.5 77.3,40.9 77.3,40.3 C77.3,39.9 77.3,39.5 77.3,39 C74.9,36.2 71.8,33.4 68.2,30.7 Z" id="path29" fill="#000000"></path>
                        <path d="M36.3,57.6 C49.4,63.2 62.4,64.1 70.1,60.8 C70.8,60 71.4,59.1 72,58.2 C68.4,59.7 63.6,60.4 58.2,60 C56.9,59.9 55.6,59.8 54.2,59.6 C54.1,59.6 54.1,59.6 54,59.6 C54,59.6 54,59.6 53.9,59.6 C53.9,59.6 53.9,59.6 53.9,59.6 C52.6,59.4 51.2,59.1 49.8,58.8 L48.6,59.3 L47.8,61.3 L47,59.3 L45,58.5 L46.4,57.9 C43.9,57.2 41.3,56.3 38.7,55.2 C38.7,55.2 38.7,55.2 38.7,55.2 C30.2,51.9 24.2,47.5 20.1,43.5 C17.6,41.1 15.6,38.7 14.1,36.3 C13.5,35.3 13.2,34.7 13.2,34.6 C12.9,36.3 12.7,38 12.7,39.7 C16.9,46.2 25.5,53 36.3,57.6 Z" id="path31" fill="#000000"></path>
                        <path d="M50.7,21.1 C50,20.8 49.3,20.5 48.5,20.3 C48.5,20.3 48.5,20.3 48.5,20.3 C49.2,20.5 49.9,20.8 50.7,21.1 Z" id="path33" fill="#000000"></path>
                        <path d="M13.2,46.2 C12.9,44.3 12.7,42.4 12.7,40.4 C12.7,40.1 12.7,39.9 12.7,39.6 C9.8,35.1 8.8,30.7 10.4,27 C10.9,25.8 11.7,24.7 12.6,23.8 C13.7,21.6 15.8,19.8 18.5,18.6 C13,19.2 8.5,21 5.7,23.9 C5.5,24.2 5.4,24.5 5.2,24.8 C2.6,31 5.9,38.8 13.2,46.2 Z" id="path35" fill="#000000"></path>
                        <path d="M78.9,46.5 C79.3,48.6 79.1,50.6 78.4,52.4 C77.9,53.6 77.1,54.7 76.2,55.6 C75,57.9 73,59.6 70.2,60.8 C68.3,63.1 66.1,65.2 63.6,66.9 C71,66.8 77.1,64.9 80.6,61.4 C80.8,61.1 80.9,60.8 81.1,60.5 C82.7,56.3 81.8,51.4 78.9,46.5 Z" id="path37" fill="#000000"></path>
                        <path d="M70.1,60.8 C62.4,64.1 49.5,63.2 36.3,57.6 C25.4,53 16.9,46.3 12.6,39.6 C12.6,39.9 12.6,40.1 12.6,40.4 C12.6,42.4 12.8,44.3 13.1,46.2 C18.6,51.8 26.4,57 35.7,60.9 C45.5,65.1 55.3,67 63.4,66.9 C66,65.2 68.2,63.1 70.1,60.8 Z" id="path39" fill="#000000"></path>
                        <path d="M56.4,23.6 C55.6,23.2 54.8,22.8 54,22.5 C54.9,22.9 55.6,23.3 56.4,23.6 C56.4,23.7 56.4,23.7 56.4,23.6 Z" id="path41" fill="#000000"></path>
                        <ellipse id="ellipse48" fill="url(#linearGradient-1)" cx="42.10001" cy="14.5" rx="5.0999999" ry="3.0999999"></ellipse>
                        <path d="M64.9,26.1 C66.4,27.3 68.2,27.5 69,26.6 C69.7,25.7 69.1,24 67.6,22.8 C66.1,21.6 64.3,21.4 63.5,22.3 C62.7,23.2 63.4,25 64.9,26.1 Z" id="path55" fill="url(#linearGradient-1)"></path>
                        <path d="M69,47.9 C70.5,47.9 71.6,46.4 71.6,44.6 C71.6,42.8 70.4,41.4 68.9,41.4 C67.4,41.4 66.3,42.9 66.3,44.7 C66.3,46.4 67.5,47.9 69,47.9 Z" id="path62" fill="url(#linearGradient-1)"></path>
                        <polygon id="polygon69" fill="url(#linearGradient-1)" points="86.7 21.6 83.2 20.2 81.9 16.7 80.5 20.2 77.1 21.6 80.5 22.9 81.9 26.4 83.2 22.9"></polygon>
                        <polygon id="polygon76" fill="url(#linearGradient-1)" points="4.3 56.8 7 57.9 8.1 60.6 9.2 57.9 11.9 56.8 9.2 55.7 8.1 53 7 55.7"></polygon>
                        <path d="M67.9,31 C68,30.9 68.1,30.8 68.2,30.7 C71.8,33.4 74.9,36.2 77.4,39.1 C76.7,21.8 62.5,8 45.1,8 C37.1,8 29.7,10.9 24,15.8 C27,15.7 30.2,15.9 33.5,16.4 C33.5,16.2 33.5,16.1 33.5,15.9 C33.5,12.8 37.6,10.3 42.7,10.3 C47.8,10.3 51.9,12.8 51.9,15.9 C51.9,17.7 50.6,19.2 48.6,20.3 C49.3,20.6 50,20.8 50.8,21.1 C50.1,20.8 49.3,20.5 48.6,20.3 C47,21.1 45,21.6 42.8,21.6 C38.3,21.6 34.5,19.6 33.8,16.9 C29.6,16.5 25.7,16.7 22.4,17.5 C20.1,19.8 18.1,22.4 16.6,25.3 C18.1,28.6 21.2,33.7 21.2,33.7 C18.9,31.6 15.7,27 15.7,27 C15.7,27 15.7,27 15.7,27 C18.5,33.6 24.3,39.5 24.3,39.5 C18.3,35.6 15.2,30.7 15.2,30.7 C17.4,37.1 27.7,44.7 27.7,44.7 C20.5,40.7 15.6,35.6 15.6,35.6 C21,44.8 38.5,55.1 38.8,55.3 C41.4,56.4 44,57.3 46.5,58 L47.1,57.7 L47.9,55.7 L48.7,57.7 L50.7,58.5 L49.9,58.8 C51.3,59.1 52.6,59.4 54,59.6 C54.1,59.6 65.9,59.9 73.4,56.1 C73.4,56.1 73.4,56.1 73.4,56.1 C73.3,56.1 66.6,58.2 61.5,57.9 C61.5,57.9 71,56.4 74.5,54.1 C74.5,54.1 74.5,54.1 74.5,54.1 C74.5,54.1 69.1,55.5 66.6,55.6 C66.6,55.6 71.6,54.1 75.2,52.4 C76.5,49.2 77.3,45.7 77.4,42.1 C75.5,38.3 72.2,34.5 67.9,31 Z M28.1,24.5 L27,21.8 L24.3,20.7 L27,19.6 L28.1,16.9 L29.2,19.6 L31.9,20.7 L29.2,21.8 L28.1,24.5 Z M36.8,34.6 L35.7,37.3 L34.6,34.6 L31.9,33.5 L34.6,32.4 L35.7,29.7 L36.8,32.4 L39.5,33.5 L36.8,34.6 Z M56.4,23.7 C55.6,23.3 54.8,22.9 54,22.6 C54.9,22.9 55.6,23.3 56.4,23.7 C56.4,23.7 56.4,23.7 56.4,23.7 Z M60.4,20.9 C61.7,19.2 65,19.6 67.8,21.8 C70.5,24 71.7,27.1 70.3,28.8 C69,30.5 65.7,30.1 62.9,27.9 C60.2,25.7 59.1,22.5 60.4,20.9 Z M68.1,50.9 C65.4,50.9 63.3,48.3 63.2,45 C63.2,41.7 65.3,39.1 68,39 C70.7,39 72.8,41.6 72.9,44.9 C72.9,48.2 70.7,50.9 68.1,50.9 Z" id="path78" fill="#000000"></path>
                        <polygon id="polygon85" fill="url(#linearGradient-1)" points="60.4 74.8 62.4 75.6 63.2 77.6 64 75.6 66 74.8 64 74 63.2 71.9 62.4 74"></polygon>
                        <path d="M4.3,22.8 C-7.6,38.2 13.2,53.3 13.2,53.3 L12.7,50.4 C-5.2,35.6 4.3,22.8 4.3,22.8 Z" id="path87" fill="#000000"></path>
                        <path d="M80.8,41 C80.8,41 96.7,61.3 71.9,67.9 C71.9,67.9 99.7,64.4 80.8,41 Z" id="path89" fill="#000000"></path>
                        <polygon id="polygon96" fill="url(#linearGradient-1)" points="59.7 3.1 57.7 2.2 56.9 0.2 56.1 2.2 54.1 3.1 56.1 3.9 56.9 5.9 57.7 3.9"></polygon>
                        <polygon id="polygon103" fill="url(#linearGradient-1)" points="22.8 7.4 20.7 6.6 19.9 4.6 19.1 6.6 17.1 7.4 19.1 8.2 19.9 10.3 20.7 8.2"></polygon>
                    </g>
                    <ellipse id="ellipse107" fill="#E6E7E7" cx="40" cy="78.5" rx="23.4" ry="1.5"></ellipse>
                </g>
                <circle id="circle111" fill="#FFFFFF" opacity="0.23999999" cx="44" cy="35.89999" r="4.0999999"></circle>
                <circle id="circle113" fill="#FFFFFF" opacity="0.23999999" cx="44" cy="45.39999" r="1.9"></circle>
            </g>
            <g id="g149" transform="translate(99.000000, 7.000000)" fill="#000000">
                <g id="g147">
                    <polygon id="path117" points="4.7 28.2 16.1 28.2 15.9 29.5 3.4 29.5 3.4 2.6 4.8 2.6 4.8 28.2"></polygon>
                    <path d="M23.1,1.6 C23.1,2.2 22.7,2.7 22,2.7 C21.3,2.7 20.9,2.2 20.9,1.6 C20.9,1 21.3,0.5 22,0.5 C22.7,0.5 23.1,1 23.1,1.6 Z M22.7,29.5 L21.4,29.5 L21.4,9 L22.7,9 L22.7,29.5 Z" id="path119"></path>
                    <path d="M46.8,19.1 C46.8,25.8 44.2,29.9 39.2,29.9 C36.4,29.9 34.3,28.4 33,26.7 L32.8,29.5 L31.7,29.5 L31.7,0.5 L33,0.3 L33,12 C34.5,10 36.6,8.5 39.4,8.5 C44.2,8.5 46.8,12.3 46.8,19.1 Z M45.4,19.1 C45.4,12.9 43.3,9.8 39.4,9.8 C36.5,9.8 34.7,11.3 33,13.6 L33,25.1 C34.4,27.2 36.4,28.7 39.1,28.7 C43.2,28.7 45.4,25.3 45.4,19.1 Z" id="path121"></path>
                    <path d="M68.1,19.9 L53.9,19.9 C54.2,26 57.1,28.7 61,28.7 C63.4,28.7 64.9,27.9 66.7,26.5 L67.4,27.4 C65.6,28.9 63.6,29.8 61,29.8 C55.8,29.8 52.5,25.9 52.5,19.3 C52.5,12.6 55.7,8.4 60.5,8.4 C65.7,8.4 68.2,12.3 68.2,18.2 C68.2,18.9 68.1,19.5 68.1,19.9 Z M66.8,17.8 C66.8,13 64.9,9.7 60.5,9.7 C57,9.7 54,12.4 53.8,18.7 L66.8,18.7 L66.8,17.8 Z" id="path123"></path>
                    <path d="M84.5,8.7 L84.2,9.9 C83.7,9.7 83.1,9.7 82.4,9.7 C79.4,9.7 77.7,11.9 76.5,16.3 L76.5,29.4 L75.2,29.4 L75.2,8.9 L76.3,8.9 L76.4,13.8 C77.5,10.2 79.4,8.5 82.4,8.5 C83.4,8.5 84,8.6 84.5,8.7 Z" id="path125"></path>
                    <path d="M101.9,28.9 L101.6,29.8 C100,29.4 99.1,28.4 99,26.1 C97.5,28.5 95.4,29.8 92.4,29.8 C88.5,29.8 86.2,27.4 86.2,23.7 C86.2,19.4 89.4,17.1 94.3,17.1 L98.8,17.1 L98.8,14.8 C98.8,11.3 97.5,9.6 93.7,9.6 C91.9,9.6 90.1,10.1 88.1,10.9 L87.7,9.8 C89.8,8.9 91.7,8.4 93.7,8.4 C98.2,8.4 100.1,10.6 100.1,14.7 L100.1,25 C100.2,27.7 100.8,28.5 101.9,28.9 Z M98.9,24.7 L98.9,18.4 L94.7,18.4 C90.4,18.4 87.7,20.2 87.7,23.8 C87.7,26.9 89.6,28.7 92.6,28.7 C95.5,28.7 97.5,27.1 98.9,24.7 Z" id="path127"></path>
                    <path d="M117.8,28.7 C116.7,29.4 115.3,29.9 113.7,29.9 C110.9,29.9 109,28.2 109,24.8 L109,10.1 L105.6,10.1 L105.6,9 L109,9 L109,3.9 L110.3,3.8 L110.3,9.1 L115.9,9.1 L115.7,10.2 L110.3,10.2 L110.3,24.8 C110.3,27.4 111.4,28.8 113.7,28.8 C115,28.8 116.1,28.4 117.1,27.8 L117.8,28.7 Z" id="path129"></path>
                    <path d="M135.5,19.9 L121.3,19.9 C121.6,26 124.5,28.7 128.4,28.7 C130.8,28.7 132.3,27.9 134.1,26.5 L134.8,27.4 C133,28.9 131,29.8 128.4,29.8 C123.2,29.8 119.9,25.9 119.9,19.3 C119.9,12.6 123.1,8.4 127.9,8.4 C133.1,8.4 135.6,12.3 135.6,18.2 C135.6,18.9 135.6,19.5 135.5,19.9 Z M134.3,17.8 C134.3,13 132.4,9.7 128,9.7 C124.5,9.7 121.5,12.4 121.3,18.7 L134.3,18.7 L134.3,17.8 Z" id="path131"></path>
                    <path d="M20.6,40 L17.6,43.5 C15.7,42 13.8,41.2 11.6,41.2 C9.3,41.2 7.9,42.1 7.9,43.9 C7.9,45.6 8.9,46.3 13.2,47.7 C18.4,49.4 21.3,51.5 21.3,56.5 C21.3,61.6 17.3,65.2 10.4,65.2 C5.7,65.2 2.3,63.5 0,61.3 L3.3,57.7 C5.3,59.4 7.5,60.4 10.2,60.4 C12.9,60.4 14.5,59.1 14.5,57 C14.5,55 13.5,54.1 9.5,52.9 C3.4,51 1.1,48.5 1.1,44.4 C1.1,39.6 5.3,36.5 11,36.5 C15.3,36.4 18.2,37.7 20.6,40 Z" id="path133"></path>
                    <path d="M41.1,45.4 L38.4,49.1 C37.1,48.1 35.8,47.6 34.4,47.6 C31.7,47.6 30.2,49.4 30.2,54.1 C30.2,58.8 31.9,60.2 34.3,60.2 C35.8,60.2 36.8,59.7 38.3,58.8 L41,62.7 C39.1,64.2 36.8,65.2 33.9,65.2 C27.5,65.2 23.5,60.9 23.5,54.2 C23.5,47.5 27.5,42.9 33.8,42.9 C36.8,42.8 39.1,43.7 41.1,45.4 Z" id="path135"></path>
                    <path d="M50.5,36 C50.5,38 49,39.6 46.8,39.6 C44.6,39.6 43.1,38.1 43.1,36 C43.1,34 44.6,32.4 46.8,32.4 C49,32.4 50.5,34 50.5,36 Z M50,64.5 L43.8,64.5 L43.8,43.5 L50,43.5 L50,64.5 Z" id="path137"></path>
                    <path d="M73,55.8 L60,55.8 C60.4,59.6 62.2,60.6 64.8,60.6 C66.5,60.6 68,60 69.8,58.7 L72.4,62.2 C70.3,63.9 67.6,65.1 64.2,65.1 C57.2,65.1 53.7,60.6 53.7,54 C53.7,47.7 57.1,42.7 63.5,42.7 C69.5,42.7 73.2,46.7 73.2,53.4 C73.2,54.3 73.1,55.2 73,55.8 Z M67,51.8 C67,49 66.1,47 63.6,47 C61.5,47 60.3,48.3 60,52.1 L67,52.1 L67,51.8 Z" id="path139"></path>
                    <path d="M94.8,49.2 L94.8,64.5 L88.6,64.5 L88.6,50.2 C88.6,48 87.8,47.4 86.6,47.4 C85.2,47.4 84.1,48.4 83,50.1 L83,64.4 L76.8,64.4 L76.8,43.4 L82.3,43.4 L82.7,45.9 C84.5,43.8 86.5,42.7 89.1,42.7 C92.6,42.8 94.8,45.2 94.8,49.2 Z" id="path141"></path>
                    <path d="M115.8,45.4 L113.1,49.1 C111.8,48.1 110.5,47.6 109.1,47.6 C106.4,47.6 104.9,49.4 104.9,54.1 C104.9,58.8 106.6,60.2 109,60.2 C110.5,60.2 111.5,59.7 113,58.8 L115.7,62.7 C113.8,64.2 111.5,65.2 108.6,65.2 C102.2,65.2 98.2,60.9 98.2,54.2 C98.2,47.5 102.2,42.9 108.5,42.9 C111.5,42.8 113.7,43.7 115.8,45.4 Z" id="path143"></path>
                    <path d="M135.8,55.8 L122.8,55.8 C123.2,59.6 125,60.6 127.6,60.6 C129.3,60.6 130.8,60 132.6,58.7 L135.2,62.2 C133.1,63.9 130.4,65.1 127,65.1 C120,65.1 116.5,60.6 116.5,54 C116.5,47.7 119.9,42.7 126.3,42.7 C132.3,42.7 136,46.7 136,53.4 C135.9,54.3 135.9,55.2 135.8,55.8 Z M129.8,51.8 C129.8,49 128.9,47 126.4,47 C124.3,47 123.1,48.3 122.8,52.1 L129.8,52.1 L129.8,51.8 Z" id="path145"></path>
                </g>
            </g>
        </g>
    </g>
</svg>