<?xml version="1.0" encoding="UTF-8"?>
<svg width="100px" height="21px" viewBox="0 0 100 21" version="1.1" xmlns="http://www.w3.org/2000/svg" xmlns:xlink="http://www.w3.org/1999/xlink">
    <!-- Generator: Sketch 49.1 (51147) - http://www.bohemiancoding.com/sketch -->
    <title>resonate</title>
    <desc>Created with Sketch.</desc>
    <defs></defs>
    <g id="Page-1" stroke="none" stroke-width="1" fill="none" fill-rule="evenodd">
        <g id="resonate" fill="#000000" fill-rule="nonzero">
            <path d="M6.20980261,5.5888223 C6.29851407,5.5888223 6.38722554,5.5888223 6.43158127,5.6110002 L6.43158127,8.7602572 C6.14326901,8.7380794 5.83277888,8.7380794 5.67753381,8.7380794 C3.88112663,8.7380794 2.90530051,9.957862 2.90530051,11.5546684 L2.90530051,16.5890441 L0,16.5890441 L0,5.7662453 L2.90530051,5.7662453 L2.90530051,7.3630517 L2.92747837,7.3630517 C3.74805943,6.2098026 4.92348635,5.5888223 6.20980261,5.5888223 Z M18.7575466,11.0667554 C18.7575466,11.4216012 18.7575466,11.9316922 18.691013,12.1091151 L11.0840048,12.1091151 C11.4388507,13.3954313 12.4590325,14.1938345 13.8562381,14.1938345 C15.0094872,14.2160124 15.8522461,13.7059215 16.4510485,12.9740519 L18.3361672,14.7261033 C17.4046968,15.9015302 15.8300683,16.766467 13.6566373,16.766467 C10.4852024,16.766467 8.08999286,14.5486804 8.08999286,11.1554668 C8.08999286,7.8731426 10.3743131,5.5888223 13.4570365,5.5888223 C16.6284714,5.5888223 18.7575466,7.8953205 18.7575466,11.0667554 Z M13.545748,8.139277 C12.3703211,8.139277 11.4388507,8.7824351 11.1061827,10.0243956 L15.874424,10.0243956 C15.5861117,8.8933244 14.8098864,8.139277 13.545748,8.139277 Z M25.2063774,16.766467 C23.4765038,16.766467 22.0127646,16.2120204 20.8151598,15.1918385 L22.2345433,13.1736527 C23.1216579,14.0164116 24.0531283,14.4377911 25.2285552,14.4377911 C26.0713142,14.4377911 26.5592272,14.0829452 26.5592272,13.5506764 C26.5592272,13.0405855 26.0047806,12.7966289 24.5853971,12.3530716 C22.8111678,11.7542692 21.2587171,10.9115103 21.2587171,8.8267908 C21.2587171,6.8751386 22.944235,5.5888223 25.1620216,5.5888223 C26.6701165,5.5888223 27.8898992,5.9880239 29.1096819,6.9416722 L27.7124763,9.0707474 C26.8697173,8.2723442 25.9160691,7.9174983 25.1176659,7.9174983 C24.6519307,7.9174983 24.0531283,8.1614549 24.0531283,8.7380794 C24.0531283,9.1816367 24.6297528,9.4921268 25.6942904,9.8913284 C28.0451443,10.7562652 29.420172,11.2663562 29.420172,13.3954313 C29.420172,15.3249057 28.0451443,16.766467 25.2063774,16.766467 Z M34.6270422,20.0709691 C32.9193465,17.3874473 31.9435204,13.949878 31.9435204,10.0465735 C31.9435204,6.2098026 32.9193465,2.6391661 34.6713979,0 L36.8004731,0.9758261 C35.3810897,3.5484586 34.5826865,6.7420714 34.5826865,10.0465735 C34.5826865,13.3954313 35.4032675,16.4781548 36.7782953,19.1173209 L34.6270422,20.0709691 Z M47.813016,20.0709691 L45.6617629,19.1173209 C47.0367906,16.4781548 47.8573717,13.3954313 47.8573717,10.0465735 C47.8573717,6.7420714 47.0589685,3.5484586 45.639585,0.9758261 L47.7686602,0 C49.5207117,2.6391661 50.4965378,6.2098026 50.4965378,10.0465735 C50.4965378,13.949878 49.5207117,17.3874473 47.813016,20.0709691 Z M60.1389813,5.5888223 C62.4676573,5.5888223 64.0866415,6.8307829 64.0866415,10.1574628 L64.0866415,16.5890441 L61.181341,16.5890441 L61.181341,10.8893324 C61.181341,8.8267908 60.4494714,8.1836327 59.0966216,8.1836327 C57.6328824,8.1836327 56.6348784,9.2038146 56.6348784,11.133289 L56.6348784,16.5890441 L53.7295779,16.5890441 L53.7295779,5.7662453 L56.6348784,5.7662453 L56.6348784,7.1634509 L56.6792341,7.1634509 C57.5663488,6.1210911 58.8083093,5.5888223 60.1389813,5.5888223 Z M75.2150021,5.7662453 L78.0981247,5.7662453 L78.0981247,16.5890441 L75.3480693,16.5890441 L75.3480693,15.28055 L75.2815357,15.28055 C74.5496661,16.2341982 73.4407728,16.766467 72.0435672,16.766467 C69.0495552,16.766467 66.8761243,14.5486804 66.8761243,11.1998226 C66.8761243,7.9174983 69.0717331,5.5888223 71.9770336,5.5888223 C73.2633499,5.5888223 74.3722432,6.0545575 75.1484685,6.9860279 L75.2150021,6.9860279 L75.2150021,5.7662453 Z M72.575836,14.1716567 C74.0839309,14.1716567 75.3258914,12.9962297 75.3258914,11.2220004 C75.3258914,9.4921268 74.1726424,8.1836327 72.5980139,8.1836327 C71.0455632,8.1836327 69.8036027,9.3590596 69.8036027,11.2220004 C69.8036027,12.9740519 70.9568517,14.1716567 72.575836,14.1716567 Z M84.9239792,16.766467 C83.0610384,16.766467 81.8412558,15.613218 81.8412558,13.1736527 L81.8412558,8.1614549 L80.5549395,8.1614549 L80.5549395,5.7662453 L81.8412558,5.7662453 L81.8412558,2.2177866 L84.7243784,1.9072965 L84.7243784,5.7662453 L87.6740346,5.7662453 L87.6740346,8.1614549 L84.7243784,8.1614549 L84.7243784,12.7744511 C84.7243784,13.7059215 85.0126907,14.1494788 85.6780267,14.1494788 C86.0328725,14.1494788 86.5651413,14.0164116 87.0530544,13.7724551 L87.8071018,16.101131 C87.0974101,16.4781548 86.3877184,16.766467 84.9239792,16.766467 Z M100,11.0667554 C100,11.4216012 100,11.9316922 99.9334664,12.1091151 L92.3264582,12.1091151 C92.6813041,13.3954313 93.7014859,14.1938345 95.0986915,14.1938345 C96.2519406,14.2160124 97.0946995,13.7059215 97.6935019,12.9740519 L99.5786205,14.7261033 C98.6471501,15.9015302 97.0725216,16.766467 94.8990907,16.766467 C91.7276558,16.766467 89.3324462,14.5486804 89.3324462,11.1554668 C89.3324462,7.8731426 91.6167665,5.5888223 94.6994899,5.5888223 C97.8709248,5.5888223 100,7.8953205 100,11.0667554 Z M94.7882014,8.139277 C93.6127745,8.139277 92.6813041,8.7824351 92.3486361,10.0243956 L97.1168774,10.0243956 C96.8285651,8.8933244 96.0523398,8.139277 94.7882014,8.139277 Z" id="Shape"></path>
        </g>
    </g>
</svg>