<?xml version="1.0" encoding="UTF-8"?>
<svg width="156px" height="164px" viewBox="0 0 156 164" version="1.1" xmlns="http://www.w3.org/2000/svg" xmlns:xlink="http://www.w3.org/1999/xlink">
    <!-- Generator: Sketch 49.1 (51147) - http://www.bohemiancoding.com/sketch -->
    <title>Page 1</title>
    <desc>Created with Sketch.</desc>
    <defs>
        <polygon id="path-1" points="0 0.0207376234 136.835777 0.0207376234 136.835777 37.8454179 0 37.8454179"></polygon>
        <polygon id="path-3" points="0.132802732 0.0633547524 52.7854911 0.0633547524 52.7854911 164 0.132802732 164"></polygon>
    </defs>
    <g id="Page-1" stroke="none" stroke-width="1" fill="none" fill-rule="evenodd">
        <g>
            <g id="Group-3" transform="translate(0.000000, 72.000000)">
                <mask id="mask-2" fill="white">
                    <use xlink:href="#path-1"></use>
                </mask>
                <g id="Clip-2"></g>
                <path d="M8.51299606,25.3570545 C6.7291419,27.0733355 4.94211644,28.7921289 2.99938032,30.3300298 C2.19989653,30.9631537 1.36267431,31.5764926 0.756639583,32.3933355 C0.150604861,33.2108066 -0.197603472,34.2886248 0.119526157,35.252757 C0.384012269,36.0557818 1.05727847,36.6549884 1.74005856,37.1621785 C2.25412569,37.5440628 2.85381782,37.9140132 3.49156551,37.8345587 C4.02212338,37.7686083 4.45849375,37.4046248 4.86124838,37.0563438 C6.24520208,35.8588727 7.62915579,34.6620298 9.01310949,33.4645587 C9.39525069,33.1341785 9.81576458,32.6932529 9.69557245,32.2052198 C9.58394282,31.7523603 9.02547755,31.4276331 9.11015116,30.9691207 C9.14884097,30.7596496 9.31723681,30.6013686 9.47643588,30.458476 C11.199084,28.9124099 12.921415,27.3663438 14.6440632,25.8209058 C17.9054243,22.8939636 21.1671025,19.9670215 24.5239197,17.1484264 C26.9610609,15.1023934 29.4476743,13.1138314 31.9812229,11.1852529 C32.1581813,11.0508397 32.3481419,10.9114017 32.5701326,10.8916165 C32.7527993,10.875914 32.9310262,10.9437488 33.1048132,11.0012198 C35.2657345,11.7147405 37.8687345,10.7226579 38.9897877,8.75921983 C43.582459,8.71399669 48.2448988,8.61852562 52.8375701,8.57330248 C54.283047,8.55917025 55.7301095,8.54472397 57.1711465,8.42883967 C58.2509729,8.34184793 59.3254081,8.19769917 60.4011118,8.07019504 C64.1505354,7.62487273 67.9237438,7.37551736 71.6998063,7.32307107 C72.4361813,7.31302149 73.1040563,7.10009587 73.8312345,6.98264132 C76.090466,6.6177157 78.3912414,6.61426116 80.6802831,6.61206281 C81.7471072,6.61112066 82.8139313,6.60986446 83.8807553,6.60892231 C86.0334313,6.60640992 88.1886442,6.60421157 90.333709,6.4302281 C91.3212507,6.3504595 92.3173549,6.23426116 93.2988711,6.36961653 C96.7543155,6.8463438 100.299191,5.97831074 103.781908,5.77386446 C105.421151,5.67745124 107.060711,5.58103802 108.695515,5.42998017 C110.344589,5.27735207 111.98954,5.06945124 113.644005,4.99470744 C114.825313,4.94163306 116.008524,4.95639339 117.190466,4.93315372 C119.888605,4.87976529 122.582304,4.62726942 125.242387,4.17817851 C126.973915,3.88579835 128.797093,3.97875702 130.55082,3.87888926 C131.165417,3.8443438 131.782552,3.80979835 132.395246,3.86821157 C132.835105,3.91029421 133.271158,4.0007405 133.713237,4.00953388 C134.366524,4.02240992 135.008394,3.85784793 135.640434,3.6942281 C136.036846,3.59184793 136.469728,3.46402975 136.691401,3.1229719 C136.981575,2.67670744 136.778612,2.09006281 136.569306,1.6010876 C136.378394,1.15482314 136.170674,0.686575207 135.778068,0.396393388 C135.400366,0.117203306 134.907547,0.0465421488 134.436292,0.027385124 C132.141859,-0.0655735537 129.920684,0.845170248 127.627519,0.963880992 C127.179098,0.987120661 126.729725,0.98021157 126.282572,1.01852562 C125.025153,1.12687273 123.799765,1.59417851 122.539491,1.52728595 C121.017903,1.8303438 119.480142,2.01751736 117.958554,2.32026116 C117.517427,2.40850909 117.074079,2.49644298 116.62439,2.5124595 C115.971737,2.53507107 115.324475,2.4047405 114.673408,2.35449256 C112.57623,2.19244298 110.501251,2.86105455 108.398047,2.90031074 C107.572876,2.91569917 106.742947,2.83404628 105.924119,2.9354843 C105.203917,3.02498843 104.510038,3.25298843 103.807596,3.43388099 C101.793505,3.95269091 99.701084,4.08145124 97.623885,4.20769917 C96.2399313,4.29186446 94.9041813,4.52991405 93.5249845,4.67594711 C92.6424127,4.76953388 91.7588896,4.86343471 90.8715609,4.90174876 C90.2331789,4.92938512 89.5941627,4.92812893 88.9554637,4.92624463 C86.6458086,4.91933554 84.3361535,4.90426116 82.0268155,4.88039339 C75.0540863,5.42589752 68.1140215,5.46829421 61.1219475,5.30216198 C56.6748387,5.19632727 52.2039451,4.9476 47.7945748,5.52827769 C44.8649313,5.4821124 41.8794729,6.18338512 38.985665,5.72958347 C38.8340771,5.70602975 38.6815377,5.67870744 38.5388294,5.62217851 C38.3384035,5.54303802 38.1652507,5.41019504 37.9949521,5.27923636 C37.5687299,4.9507405 37.1425076,4.62287273 36.7162854,4.29469091 C36.2244174,3.91594711 35.6982993,3.52275702 35.0789451,3.45429421 C34.0273433,3.33778182 33.1203525,4.1894843 32.5618873,5.07918678 C32.4271072,5.29368264 32.2942299,5.52325289 32.0776303,5.65672397 C31.8816442,5.77763306 31.6418942,5.80401322 31.411341,5.81312066 C30.4165053,5.85080661 29.4067646,5.62186446 28.4328595,5.82662479 C27.8084313,5.95789752 27.2363294,6.26032727 26.6740586,6.55961653 C26.4517507,6.67738512 26.2215146,6.80237686 26.0765863,7.00650909 C25.9430748,7.19493884 25.897091,7.43141818 25.8866257,7.66130248 C25.8612553,8.22125289 26.0591442,8.8242281 26.5269104,9.13921983 C26.9585238,9.43002975 27.5179405,9.42312066 28.0393016,9.44855868 C28.8613016,9.48907107 29.6779104,9.63604628 30.4612206,9.8857157 C29.3455586,10.9883438 28.1569567,12.0193686 26.9391789,13.0105091 C26.3927646,13.4545752 25.8368363,13.8870215 25.2812252,14.3194678 C24.7141975,14.7607074 24.1462183,15.2025752 23.5366951,15.5841455 C22.7904891,16.0511372 21.9856141,16.4257983 21.2657299,16.9320463 C20.0822021,17.7645917 19.1729914,18.9215504 18.0658919,19.8517653 C17.4563688,20.3636661 16.7900794,20.8042777 16.1336211,21.255881 C14.4322206,22.427286 12.7885377,23.6806579 11.2101836,25.0103438 C10.8159914,25.3426083 10.4065771,25.6899471 9.90519514,25.8171372 C9.40381319,25.9443273 8.71976458,25.8271868 8.51299606,25.3570545" id="Fill-1" fill="#000" mask="url(#mask-2)"></path>
            </g>
            <g id="Group-6" transform="translate(103.000000, 0.000000)">
                <mask id="mask-4" fill="white">
                    <use xlink:href="#path-3"></use>
                </mask>
                <g id="Clip-5"></g>
                <path d="M46.7001503,1.47634826 C46.7644402,1.13061853 46.697955,0.762093436 46.517316,0.461637838 C46.359884,0.198541313 46.0425112,-0.0246633205 45.7633988,0.0978617761 C45.4833456,0.220703475 45.4309728,0.592077992 45.4190556,0.900132046 C45.4027479,1.31519768 45.3864402,1.73026332 45.3820497,2.14564556 C45.3735822,2.99287336 45.4149787,3.84073436 45.5062391,4.68321313 C45.5501444,5.08814749 45.6053396,5.49276525 45.616316,5.90023243 C45.6298012,6.40679614 45.5749195,6.91272664 45.5463811,7.41897375 C45.4965172,8.30609344 45.5291325,9.19954517 45.670884,10.076217 C45.7837834,10.7759081 45.9656769,11.4642015 46.0437657,12.1683251 C46.1641917,13.2571205 46.0368663,14.3826417 46.3479669,15.4315452 C46.5671799,16.1714448 46.4150793,16.9832131 46.5010083,17.7506571 C46.6151621,18.7704332 46.5957183,19.8016069 46.7675763,20.8128347 C46.1158959,20.8650741 45.4607657,20.8720394 44.8081444,20.8337305 C44.4126828,20.8103019 44.0153396,20.7707266 43.6208189,20.8080857 C43.370245,20.8315143 43.1234343,20.8859699 42.8741148,20.9207961 C42.469245,20.977468 42.0590438,20.982217 41.650097,20.9872826 L38.931103,21.0195761 C38.7266296,21.0221089 38.5209018,21.0249583 38.3201917,21.0623174 C38.116032,21.1006263 37.9206533,21.174078 37.7230793,21.2373985 C37.4602746,21.3216147 37.1921385,21.3884178 36.9205527,21.4365413 C36.3949432,21.3741707 35.8853278,21.454271 35.3663041,21.5596996 C34.0011621,21.8370432 32.6212805,22.1191359 31.359316,22.7130819 C31.1413574,22.815661 30.9271621,22.9277382 30.7026178,23.0148039 C30.3385172,23.1566417 29.9530911,23.2310432 29.5770734,23.3352054 C28.9457775,23.5102865 28.3408249,23.7683174 27.7380675,24.0257151 C27.1641621,24.2707653 26.5905704,24.5154988 26.0219964,24.7728965 C25.416103,25.0473907 24.816168,25.3358154 24.2165467,25.6245568 L22.7758249,26.3175992 C21.4131917,26.9732826 20.030174,27.6419467 18.9018071,28.6547575 C17.5034225,29.9094525 16.0467065,31.0454216 14.4849314,32.0851436 C14.1813574,32.2871359 13.8652391,32.4945104 13.6692331,32.8035143 C13.5544521,32.9846108 13.4835763,33.1967344 13.3371207,33.3531359 C13.1862746,33.5136533 12.9736473,33.5956533 12.777955,33.6960162 C12.2307065,33.9755761 11.7863219,34.4194525 11.3513456,34.8557305 C10.8799905,35.3284178 10.4086355,35.801105 9.93728047,36.2737923 C9.22695503,36.9864641 8.51474793,37.7010355 7.88470651,38.4868425 C7.47325089,39.0003714 7.09817396,39.5427112 6.72341065,40.0844178 C5.59661183,41.7146031 4.46103195,43.3596687 3.69457041,45.1905799 C3.00682485,46.8340625 2.76503195,48.6140008 2.14188994,50.2831282 C1.96470059,50.7586649 1.77465325,51.2291359 1.6137716,51.710688 C1.21517396,52.9045954 1.00066509,54.1523251 0.787410651,55.3940394 C0.540913609,56.8288811 0.29347574,58.2725876 0.295984615,59.7289583 C0.298807101,61.5301089 0.200960947,63.3071977 0.158937278,65.1077151 C0.129144379,66.383939 0.0996650888,67.6636456 0.223227219,68.9335375 C0.295984615,69.6826185 0.421742012,70.4298 0.404493491,71.1820471 C0.392576331,71.6974757 0.313546746,72.2100548 0.317623669,72.7254834 C0.32264142,73.4334062 0.486659172,74.1400625 0.79399645,74.7764332 C0.980280473,75.1630046 0.930416568,75.5970664 1.11670059,75.9836378 C1.25876568,76.2787112 1.44944024,76.5494062 1.5673574,76.8549274 C1.71475385,77.2354834 1.74203787,77.650549 1.8091503,78.0535838 C2.01738698,79.3082788 2.61355858,80.4654602 2.88733964,81.7074911 C2.95696095,82.0225104 3.0052568,82.3425954 3.08491361,82.6550819 C3.2702568,83.3851668 3.61961775,84.0601629 3.96646982,84.727244 C3.86987811,85.6947807 4.14648166,86.7272208 4.62442249,87.5712826 C4.80506154,87.889468 5.02364734,88.1892903 5.15222722,88.5324873 C5.32690769,88.9988425 5.32471243,89.5187035 5.50409704,89.9837923 C5.68410888,90.4510973 6.03660592,90.8348193 6.21849941,91.3018077 C6.3342213,91.5984641 6.37655858,91.9179158 6.45151124,92.2275529 C6.66100237,93.0947266 7.12138107,93.8761012 7.59242249,94.6311977 C8.25131598,95.6880162 8.94282485,96.723939 9.6666355,97.7364332 C10.3415231,98.6811745 11.047458,99.6119853 11.570245,100.650441 C12.0867598,101.677182 12.4505467,102.742232 13.1922331,103.617321 C13.4399846,103.909862 13.6877361,104.202402 13.9354876,104.494943 C14.7474225,105.452665 15.5593574,106.41102 16.4192746,107.325051 C17.7499195,108.73963 19.1937775,110.045931 20.7314047,111.226541 C21.5204462,111.832518 22.2451976,112.578433 23.0028781,113.223669 C23.9803988,114.056016 25.1297775,114.651545 26.2678663,115.239476 C27.352955,115.800495 28.4383574,116.361198 29.5234462,116.9219 C31.1714639,117.773561 32.8197953,118.625537 34.4681266,119.476881 C35.0523811,119.77892 35.6391444,120.081908 36.2588367,120.301314 C37.0516414,120.582456 37.9234757,120.741074 38.5604166,121.294178 C39.1346355,121.79251 39.9450024,121.857414 40.5991917,122.242402 C40.7374935,122.323769 40.8745408,122.408619 41.0209964,122.474472 C41.1545941,122.534943 41.2944639,122.579584 41.4343337,122.623592 C42.7602746,123.044989 44.1404698,123.471136 45.517529,123.279275 C45.4751917,123.626588 45.6031444,123.969468 45.7289018,124.295885 C45.9023278,124.746093 46.0936296,125.22068 46.4790556,125.505939 C46.3200556,126.685283 46.716458,127.907368 46.7233574,129.097476 C46.7264935,129.695537 46.6368012,130.29075 46.6270793,130.888812 C46.6142213,131.691715 46.7456237,132.493036 46.7073633,133.295306 C46.6829018,133.811368 46.5885053,134.321731 46.5383278,134.836209 C46.3658426,136.600634 46.7152036,138.37709 46.6518544,140.149113 C46.6179846,141.098286 46.6741207,142.011368 46.7647538,142.956742 C46.8064639,143.395553 46.8726355,143.831831 46.8949018,144.271592 C46.9121503,144.615105 46.902742,144.959568 46.8961562,145.303715 C46.8685586,146.811375 46.901174,148.319985 46.9940024,149.825113 C47.2154107,153.410951 46.9322213,157.012619 46.6916828,160.596873 C46.6487183,161.237993 46.7258663,161.925337 46.8597775,162.553792 C46.9215586,162.843483 47.0012154,163.142039 47.1940852,163.365244 C47.4625349,163.675514 47.9407893,163.77746 48.3105349,163.603012 C48.3967775,163.562487 48.4817657,163.502966 48.5165763,163.413051 C48.5366473,163.360495 48.5379018,163.302873 48.5382154,163.246518 C48.5567183,161.462147 48.3397006,159.665429 48.597174,157.900371 C48.8521385,156.156209 48.6379432,154.355059 48.6341799,152.592217 C48.6322982,151.662989 48.630103,150.733128 48.5620497,149.80675 C48.5153219,149.173862 48.438174,148.543507 48.3999136,147.910302 C48.3180615,146.54258 48.4199846,145.169476 48.3456592,143.801754 C48.2832509,142.650588 48.3293515,141.474727 48.3108485,140.321978 C48.2901503,139.051769 48.2694521,137.781244 48.2490675,136.511352 C48.2346414,135.613785 48.2199018,134.716534 48.2054757,133.818966 C48.1706651,131.671453 48.1919905,129.483097 48.1816414,127.335267 C48.180387,127.12251 48.1800734,126.905321 48.2481266,126.703646 C48.3155527,126.50197 48.4651444,126.315808 48.6696178,126.263568 C48.9571976,126.1898 49.2541858,126.409522 49.3749254,126.683066 C49.4959787,126.956611 49.4843751,127.268464 49.4721444,127.56797 C49.3118899,131.46946 49.3564225,135.379499 49.6054284,139.27624 C49.9450675,144.587561 49.7057834,149.921676 49.6286355,155.243761 C49.5894343,157.9257 49.2184343,160.644047 49.3620675,163.322503 C49.3724166,163.51658 49.3971917,163.733453 49.547097,163.855028 C49.6402391,163.930379 49.7638012,163.952541 49.8817183,163.972171 C50.1576947,164.017761 50.4982746,164.035175 50.6547657,163.801522 C50.7519846,163.656202 50.7369314,163.46529 50.7221917,163.290842 C50.585458,161.66319 50.810316,160.030472 50.9385822,158.402186 C50.9931503,157.708194 51.0304698,157.012619 51.0433278,156.316093 C51.056813,155.602155 51.0448959,154.887584 51.0332923,154.173329 C51.0097716,152.751785 50.9862509,151.329924 50.9630438,149.908063 C50.9476769,148.979785 51.129884,148.052773 51.2151858,147.127978 C51.2521917,146.731908 51.288884,146.334889 51.2832391,145.937236 C51.2772805,145.532302 51.2277302,145.128951 51.2089136,144.724333 C51.1794343,144.085746 51.2274166,143.444943 51.1788071,142.807622 C51.1414876,142.317205 51.0470911,141.832171 51.0060083,141.341754 C50.9548899,140.726912 50.9878189,140.108588 51.0060083,139.491846 C51.0358012,138.467005 51.0245112,137.441213 50.9715112,136.417638 C50.9112982,135.255391 51.1207893,134.067182 51.0662213,132.904619 C51.022316,131.967159 50.9354462,131.030966 50.9388959,130.09224 C50.9426592,129.05885 51.0558722,128.028943 51.1690852,127.001568 C51.1926059,126.787862 51.2195763,126.564024 51.3412568,126.387676 C51.4158959,126.279715 51.5206414,126.197715 51.6169195,126.109383 C51.9054402,125.84502 52.1293574,125.510688 52.2682864,125.143113 C52.3868308,124.830626 52.4435941,124.49851 52.5000438,124.168611 C52.5775053,123.71397 52.6549669,123.259329 52.732742,122.804688 C52.8349787,122.20346 52.7603396,121.521499 52.7421503,120.911723 C52.7245882,120.327592 52.6929136,119.733962 52.5003574,119.182441 C52.4636651,119.077329 52.4188189,118.970634 52.3385349,118.8937 C52.2695408,118.827213 52.1792213,118.788588 52.0958012,118.741731 C51.7997538,118.574881 51.572387,118.294055 51.2587775,118.164248 C51.1126355,118.103777 50.9548899,118.079398 50.799026,118.055653 C50.4844757,118.007213 50.1702391,117.95909 49.8560024,117.910966 C49.5966473,117.871074 49.3369787,117.831182 49.0751148,117.811553 C48.9070201,117.798889 48.7332805,117.79509 48.5745941,117.852395 C48.406813,117.913182 48.2700793,118.035707 48.1292686,118.145885 C47.5942509,118.563167 46.9479018,118.82563 46.4448722,119.281854 C45.9895112,119.694387 45.6605349,120.257306 45.1283396,120.561877 C44.4776,120.934202 43.6744462,120.839537 42.9337006,120.733792 C39.9274402,120.304163 37.156387,118.897499 34.4530734,117.501599 C33.9384402,117.235653 33.4291385,116.958943 32.9217183,116.678433 C32.4237065,116.403306 31.9275763,116.124696 31.4314462,115.846086 C31.1275586,115.675754 30.823671,115.505422 30.520097,115.334773 C29.5272095,114.777236 28.5340083,114.220016 27.556174,113.636202 C26.0113337,112.713306 24.5050675,111.72424 23.0433337,110.672171 C22.6682568,110.402742 22.283458,110.160858 21.9591858,109.830325 C21.8365645,109.705584 21.7217834,109.570711 21.5816,109.465599 C21.4614876,109.375051 21.3260083,109.308564 21.1964876,109.23258 C20.8082391,109.004626 20.4767538,108.691823 20.149032,108.381869 C19.9069254,108.152649 19.6645053,107.924063 19.4227124,107.694842 C19.1272923,107.415599 18.8315586,107.136039 18.5596592,106.834001 C18.2745882,106.517398 18.0168012,106.176734 17.7267124,105.864881 C17.4523041,105.569808 17.1506118,105.301962 16.8605231,105.022719 C15.6136118,103.82058 14.5843456,102.406317 13.6639018,100.93475 C13.4932982,100.662155 13.3847893,100.420904 13.2144994,100.14831 C12.2949964,98.6780085 11.3745527,97.2054911 10.5676355,95.6690201 C9.83692544,94.2772363 9.20155266,92.8370124 8.56712071,91.3980548 C8.45610296,91.1469892 8.34539882,90.8956069 8.23438107,90.6445413 C7.90603195,89.8992595 7.57736923,89.1546108 7.24902012,88.4096456 C6.72278343,87.2173212 6.48506746,85.924634 5.9732568,84.7259776 C5.77286036,84.2570896 5.58469467,83.7787035 5.48402604,83.2781552 C5.44702012,83.0929429 5.42193136,82.9048811 5.3767716,82.7215683 C5.25289586,82.2197537 4.9825645,81.768912 4.78844024,81.2905259 C4.56797278,80.7466031 4.44660592,80.1678541 4.32586627,79.5929042 C4.12923314,78.6538618 3.9326,77.7145027 3.73565325,76.7754602 C3.04728047,73.4894448 2.55679527,70.1268116 2.30339882,66.7781089 C2.18454083,65.2099776 2.24224497,63.6282324 2.47462959,62.0727653 C2.63770651,60.9846031 2.64178343,59.8204564 2.71203195,58.7218463 C2.74245207,58.2466263 2.7731858,57.770773 2.82806746,57.2971359 C2.97954083,55.9974834 3.31510296,54.7260085 3.48852899,53.429522 C3.56128639,52.886549 3.60675976,52.334078 3.78833964,51.8176996 C3.97023314,51.3016378 4.28227456,50.8400317 4.46448166,50.3239699 C4.62473609,49.8696456 4.89757633,49.3896764 5.07507929,48.9420008 C5.23376568,48.5418154 5.35670059,48.1286494 5.4928071,47.7199158 C6.00555858,46.1786958 6.70741657,44.7017459 7.57674201,43.3330741 C7.84519172,42.9097768 8.1296355,42.497244 8.41188402,42.0834448 C9.1927716,40.937661 9.95703787,39.7801629 10.7209905,38.6229815 C12.3690083,36.1265722 15.4467716,34.9101861 17.5567361,32.7978154 C17.9967302,32.357105 18.4063041,31.883468 18.8873811,31.4899313 C19.573245,30.9285954 20.3823574,30.5470896 21.1356473,30.082634 C22.8216118,29.0432286 24.2457124,27.5757768 26.0401858,26.7412131 C27.9397183,25.8575761 30.0202036,25.3392981 32.0307538,24.7567498 C32.6626769,24.5737537 33.3105941,24.4550278 33.9572568,24.3366185 C34.6500201,24.2099776 35.3424698,24.0830201 36.0349195,23.9563792 C36.7214107,23.830688 37.4088426,23.7049969 38.0834166,23.5245336 C38.4713515,23.4203714 38.8542686,23.2987961 39.2412627,23.1917846 C39.5489136,23.1069351 39.859387,23.0315838 40.1726828,22.9714293 C41.6795763,22.6823714 43.2538959,22.7580394 44.7269195,23.1895683 C44.5685467,23.3348888 44.5218189,23.5175683 44.4747775,23.7284255 C44.2530556,24.7219236 44.2508604,25.7648116 44.4691325,26.7589429 C44.5440852,27.10119 44.6500852,27.4478695 44.8714935,27.7182479 C45.2170911,28.1399622 45.7781385,28.3020625 46.3075112,28.4201552 C46.8597775,28.5429969 47.4292923,28.6420934 47.988458,28.5569274 C48.5476237,28.472078 49.1011444,28.1744718 49.3695941,27.6720239 C49.4520734,27.5178386 49.505387,27.3500394 49.5539964,27.1819236 C49.776032,26.4128965 49.9074343,25.6172749 49.9444402,24.8172208 C49.9535349,24.6275761 49.956671,24.4360317 49.9177834,24.2505027 C49.8654107,24.0022865 49.7405941,23.7774988 49.6289491,23.550495 C49.201813,22.6807884 48.9518663,21.7218 48.9001207,20.7523637 C48.8330083,19.5008347 48.5890201,18.3294062 48.3713751,17.0956069 C48.280742,16.5811282 48.2427953,16.0581012 48.141813,15.5452054 C48.0662331,15.1614834 47.9558426,14.7853598 47.8630142,14.4054371 C47.7237716,13.8346031 47.6240438,13.2552208 47.524316,12.6764718 C47.232032,10.9760008 46.9391207,9.26951429 46.8735763,7.54498147 C46.8491148,6.89531351 46.856955,6.24469575 46.8967834,5.59597761 C46.974245,4.34856448 46.8343751,3.09893514 46.7932923,1.849939 C46.7892154,1.71949884 46.676316,1.6048888 46.7001503,1.47634826" id="Fill-4" fill="#000" mask="url(#mask-4)"></path>
            </g>
        </g>
    </g>
</svg>
