<?xml version="1.0" encoding="UTF-8"?>
<svg width="119px" height="70px" viewBox="0 0 119 70" version="1.1" xmlns="http://www.w3.org/2000/svg" xmlns:xlink="http://www.w3.org/1999/xlink">
    <!-- Generator: Sketch 49.1 (51147) - http://www.bohemiancoding.com/sketch -->
    <title>Group 2</title>
    <desc>Created with Sketch.</desc>
    <defs>
        <polygon id="path-1" points="9.56089464e-05 0 48.9513657 0 48.9513657 69.6550777 9.56089464e-05 69.6550777"></polygon>
        <polygon id="path-3" points="0 0.000154644016 88.951123 0.000154644016 88.951123 9.67319366 0 9.67319366"></polygon>
    </defs>
    <g id="Page-1" stroke="none" stroke-width="1" fill="none" fill-rule="evenodd">
        <g id="Group-2">
            <g id="Group">
                <g id="Page-1" transform="translate(70.000000, 0.000000)">
                    <mask id="mask-2" fill="white">
                        <use xlink:href="#path-1"></use>
                    </mask>
                    <g id="Clip-2"></g>
                    <path d="M6.30582463,3.94680311 C6.45099627,4.52058549 6.58995149,5.1563886 6.31350373,5.68048187 C5.98915299,6.29633679 5.22636194,6.51794301 4.54145896,6.66156995 C3.9296903,6.79032642 3.30658582,6.90530052 2.68311567,6.86105181 C2.05964552,6.81644041 1.42739925,6.59592228 1.00139179,6.14182902 C0.789302239,5.91587047 0.636451493,5.64239896 0.494570896,5.36747668 C0.293451493,4.97685492 0.108787313,4.571 0.0352873134,4.1383057 C-0.126705224,3.18804663 0.285041045,2.19644041 0.972503731,1.51493782 C1.65960075,0.833435233 2.59169776,0.435559585 3.54354104,0.240792746 C4.37800373,0.0703264249 5.23477239,0.0442124352 6.08678731,0.0260777202 C8.31409328,-0.0210725389 10.5457873,-0.0203471503 12.7661455,0.165715026 C15.0742649,0.359756477 17.3655634,0.755455959 19.6045709,1.34628497 C21.2647201,1.78441969 22.8937873,2.32882383 24.5217575,2.87286528 C24.7225112,2.94032642 24.9228993,3.00706218 25.1232873,3.07416062 C28.7390485,4.28265803 32.1983022,5.96555959 35.8210112,7.15229534 C36.489459,7.371 37.1630261,7.58498964 37.7949067,7.8925544 C38.3474366,8.16131088 38.8626679,8.49934197 39.362541,8.85478238 C40.1487351,9.41405699 40.9608918,10.1184093 41.0771754,11.0712073 C41.151041,11.6750933 40.9268843,12.2706373 40.7151604,12.8415181 C39.5556157,15.967943 38.6450933,19.1850415 37.9956604,22.4529171 C37.8559739,23.1569067 37.7279888,23.8659741 37.7001978,24.582658 C37.6405933,26.104886 38.0479515,27.6416218 38.8535261,28.9382539 C38.8652276,31.4383057 40.0799888,33.8324508 41.1404366,36.1003782 C41.3444813,36.5363368 41.2903619,37.0172694 41.4691754,37.4641088 C41.8648321,38.4531762 42.2604888,39.4415181 42.6561455,40.4302228 C42.8243545,40.8513109 42.9932948,41.2731244 43.1176231,41.7087202 C43.2924142,42.3227617 43.3779813,42.9574767 43.4792724,43.5874767 C44.1104216,47.5042124 45.3855187,51.2860259 46.6551306,55.0468031 C47.1996157,56.6600674 48.2253246,58.1373212 48.6253694,59.7915699 C49.0254142,61.445456 49.0894067,63.200171 48.6370709,64.8413627 C48.5346828,65.2131244 48.401944,65.5859741 48.1587724,65.8866477 C47.9090187,66.1956632 47.5594366,66.4082021 47.2043694,66.5884611 C46.3391903,67.0291347 45.3950261,67.3174767 44.4300187,67.4364404 C43.2935112,67.5768031 42.1405485,67.483228 40.998556,67.5659223 C39.8832575,67.6468031 38.7877052,67.8941606 37.6800858,68.0446788 C37.0193172,68.1346269 36.3541604,68.1893938 35.6897351,68.2441606 L28.2534366,68.8596528 C26.9106903,68.9706373 25.6312052,69.0123472 24.2869963,69.1055596 C23.7556754,69.1425544 23.2239888,69.1791865 22.6963246,69.2513627 C21.9306082,69.3558187 21.1758619,69.5339016 20.4075858,69.6184093 C19.8916231,69.6753523 19.3537201,69.6869585 18.8706679,69.4979948 C18.3876157,69.3093938 17.9700187,68.8799637 17.9338172,68.3663886 C17.9034664,67.9380466 18.1396903,67.5245751 18.462944,67.2384093 C18.7861978,66.9522435 19.1888022,66.7730725 19.5873843,66.6047824 C20.9396381,66.0331762 22.3368694,65.5319326 23.7940709,65.3389793 C25.6699664,65.0905337 27.6120485,65.3563886 29.4422351,64.8787202 C30.8464142,64.5116736 32.4253843,64.8391865 33.8738097,64.7343679 C35.1163619,64.6444197 36.349041,64.456544 37.5795261,64.2643161 C38.767959,64.0782539 39.9571231,63.8878394 41.1280037,63.6132798 C41.5726604,63.5088238 42.0162201,63.3916736 42.4371082,63.2154041 C43.7228097,62.675715 44.7499813,61.5607927 45.1759888,60.2420363 C45.3186007,59.8017254 45.3964888,59.3320363 45.3244515,58.8750415 C45.265944,58.5047306 45.1116306,58.1569067 44.9737724,57.8072694 C44.6344291,56.9465959 44.3890634,56.0521917 44.1444291,55.1603264 C44.0051082,54.6529171 43.866153,54.1455078 43.7268321,53.6384611 C43.5940933,53.1542642 43.2708396,52.5986166 43.1139664,52.1213109 C42.7812052,51.1075803 42.668944,50.0184093 42.1961306,49.0608964 C41.8172948,48.2934352 41.2135709,47.6268031 40.9959963,46.7994974 C40.8756903,46.3439534 40.8811754,45.866285 40.8464366,45.3965959 C40.7696455,44.3607409 40.4957575,43.351 40.2233321,42.3477876 C39.8426679,40.9466995 39.459444,39.5387202 38.8623022,38.2137979 C37.789056,35.8312591 36.8053993,33.2695492 36.1047724,30.7542642 C35.9372948,30.1521917 35.7815187,29.5468549 35.6469515,28.9368031 C35.2381306,27.0877876 35.0209216,25.2028653 34.805541,23.3219326 C34.6903545,22.315456 34.5755336,21.2973731 34.6954739,20.2908964 C34.7737276,19.6384093 34.9496157,19.0015181 35.1247724,18.3671658 L35.9453396,15.3981503 C36.3428246,13.9607927 36.4748321,12.2702746 35.4355933,11.1934352 C35.3350336,11.089342 35.2278918,10.9917772 35.12075,10.8938497 C34.8625858,10.6584611 34.6044216,10.4227098 34.3458918,10.1873212 C33.9264664,9.80467876 33.50375,9.4198601 33.0185037,9.12317617 C32.4363545,8.76809845 31.7810709,8.55048187 31.1718619,8.24327979 C30.5717948,7.94006736 30.0196306,7.55089637 29.4224888,7.24188083 C28.8257127,6.93250259 28.1620187,6.70219171 27.4906455,6.75405699 C25.7270112,6.4290829 23.877444,6.09649223 22.1138097,5.77115544 C21.3086007,5.62245078 20.5011978,5.47374611 19.7171978,5.23872021 C19.1818545,5.07804663 18.6585784,4.87747668 18.1170187,4.73929016 C17.7041754,4.63374611 17.2829216,4.5644715 16.8623993,4.49555959 C15.2088321,4.22426425 13.5552649,3.95296891 11.9016978,3.68167358 C10.5033694,3.45245078 9.09809328,3.22250259 7.68111567,3.21815026 C7.40210821,3.21706218 7.11505597,3.22685492 6.85725746,3.33312435 C6.59909328,3.43939378 6.2378097,3.67804663 6.30582463,3.94680311" id="Fill-1" fill="#000000" mask="url(#mask-2)"></path>
                </g>
                <g id="Page-1" transform="translate(0.000000, 35.000000)">
                    <mask id="mask-4" fill="white">
                        <use xlink:href="#path-3"></use>
                    </mask>
                    <g id="Clip-2"></g>
                    <path d="M22.0576287,4.48610714 C19.0407475,4.73039286 16.0056287,4.97432143 12.9913008,4.70182143 C12.4850221,4.65610714 11.9718131,4.59575 11.4713705,4.68289286 C10.605809,4.83325 9.88250164,5.40146429 9.05925164,5.70325 C7.72279262,6.19325 6.23824344,5.95003571 4.81387869,6.03646429 C3.78563689,6.09896429 2.76906721,6.33860714 1.8243541,6.74146429 C0.951497541,7.11396429 0.0483663934,7.77003571 0.00131311475,8.70146429 C-0.0154655738,9.03860714 0.114751639,9.41003571 0.418227049,9.56932143 C0.57580082,9.65217857 0.760001639,9.66860714 0.938731148,9.67217857 C1.80137459,9.69075 2.64541557,9.45110714 3.47851393,9.23110714 C10.1972844,7.45503571 17.2271902,6.81467857 24.1651779,7.34610714 C26.8337189,7.55003571 29.7065221,7.27789286 32.3798049,7.15467857 C34.3516656,7.06360714 36.3231615,6.97253571 38.2950221,6.88110714 C42.1636041,6.70253571 46.0358336,6.52325 49.8836246,6.09217857 C50.5959893,6.01217857 51.3079893,5.92360714 52.0240016,5.88860714 C52.7480385,5.85253571 53.4735344,5.87110714 54.1979361,5.90146429 C58.6293336,6.08682143 63.1639566,6.70753571 67.4326738,5.52825 C69.0532762,5.08075 70.6126,4.37753571 72.2846328,4.18075 C77.3149566,3.58753571 82.4156779,5.44896429 87.3938418,6.37182143 C87.6958582,6.42789286 88.0080877,6.48253571 88.3082803,6.41682143 C88.608473,6.35182143 88.8962639,6.13503571 88.943682,5.83789286 C89.0250221,5.32646429 88.4279197,4.98860714 87.9300303,4.81396429 C85.8837598,4.09575 83.8006492,3.47753571 81.691641,2.96182143 C83.0094975,2.91289286 84.3080221,2.64932143 85.5992516,2.38753571 C86.2313705,2.25932143 86.9853172,2.01825 87.1180877,1.39932143 C87.2074525,0.98325 86.9430057,0.552178571 86.5764279,0.324321429 C86.20985,0.0961071429 85.7622967,0.0328928571 85.3282393,0.0111071429 C83.6755385,-0.0735357143 82.0465467,0.352535714 80.4106246,0.597178571 C76.4650795,1.18860714 72.4290754,0.728964286 68.4565385,1.11075 C67.5081779,1.20217857 66.5656533,1.34075 65.6238582,1.47967857 C64.3052721,1.67396429 62.9866861,1.86825 61.6684648,2.06253571 C59.1545795,2.05325 56.6297516,2.15467857 54.1359279,2.46682143 C52.9610549,2.61360714 51.7839934,2.79646429 50.5996369,2.76467857 C49.7300631,2.74110714 48.8670549,2.60253571 47.9982107,2.55575 C44.5873951,2.37217857 41.2123254,3.61253571 37.8051574,3.37075 C37.0005098,3.31360714 36.2042516,3.17396429 35.4014279,3.09789286 C30.9258951,2.67325 26.5389975,4.12325 22.0576287,4.48610714" id="Fill-1" fill="#030404" mask="url(#mask-4)"></path>
                </g>
            </g>
        </g>
    </g>
</svg>