<?xml version="1.0" encoding="UTF-8"?>
<svg width="19px" height="148px" viewBox="0 0 19 148" version="1.1" xmlns="http://www.w3.org/2000/svg" xmlns:xlink="http://www.w3.org/1999/xlink">
    <!-- Generator: Sketch 49.1 (51147) - http://www.bohemiancoding.com/sketch -->
    <title>Page 1</title>
    <desc>Created with Sketch.</desc>
    <defs>
        <polygon id="path-1" points="0 0 18.449947 0 18.449947 147.156918 0 147.156918"></polygon>
    </defs>
    <g id="Page-1" stroke="none" stroke-width="1" fill="none" fill-rule="evenodd">
        <g>
            <mask id="mask-2" fill="white">
                <use xlink:href="#path-1"></use>
            </mask>
            <g id="Clip-2"></g>
            <path d="M8.1042,68.5351 C9.8042,68.2041 11.5042,67.8731 13.2052,67.5431 C14.3802,67.3141 15.5832,67.0851 16.7672,67.2631 C17.0942,67.3111 17.4292,67.3971 17.6862,67.6061 C18.0832,67.9291 18.2132,68.4701 18.3202,68.9701 C18.5132,69.8711 18.5962,71.0361 17.7922,71.4871 C17.4772,71.6651 17.0982,71.6741 16.7372,71.6841 C14.5932,71.7451 12.4542,71.9961 10.3542,72.4331 C9.9852,72.5111 9.6112,72.5961 9.2862,72.7861 C8.6652,73.1511 8.3112,73.8631 8.2032,74.5761 C8.0942,75.2891 8.1962,76.0141 8.2932,76.7291 C9.1562,83.1111 9.5762,89.5531 9.5482,95.9921 C9.5292,100.5871 9.9022,105.1981 10.5862,109.7421 C10.7712,110.9711 10.9872,112.2011 10.9992,113.4431 C11.0122,114.7581 10.7952,116.0621 10.6712,117.3711 C10.4582,119.6051 10.5092,121.8541 10.5612,124.0981 C10.6482,127.8521 10.7372,131.6231 11.3792,135.3231 C11.7282,137.3311 12.2382,139.3101 12.5012,141.3311 C12.6692,142.6261 12.7352,143.9351 12.6972,145.2411 C12.6882,145.5581 12.6642,145.9001 12.4632,146.1461 C12.2682,146.3871 11.9492,146.4811 11.6492,146.5561 C10.3982,146.8701 9.1182,147.0661 7.8302,147.1411 C7.2402,147.1761 6.6152,147.1771 6.1032,146.8831 C5.4942,146.5341 5.1722,145.8401 4.9842,145.1641 C4.6712,144.0331 4.6312,142.8481 4.5922,141.6761 C3.9352,121.5221 3.2762,101.3701 2.6182,81.2171 C2.4242,75.2631 3.8802,69.0241 2.9632,63.1381 C2.7602,61.8371 2.4802,60.5461 2.3482,59.2351 C2.1582,57.3551 2.2722,55.4611 2.3202,53.5721 C2.5402,44.9711 1.3732,36.3381 2.2322,27.7771 C2.7322,22.8031 2.0422,17.8541 1.1902,12.9281 C1.0912,12.3501 0.9842,11.7731 0.8092,11.2161 C0.5562,10.4161 0.1622,9.6541 0.0412,8.8241 C-0.1228,7.6971 0.2312,6.5661 0.5832,5.4831 C0.9422,4.3741 1.3392,3.2121 2.2092,2.4351 C2.8122,1.8971 3.5852,1.5991 4.3412,1.3121 C5.8192,0.7501 7.3202,0.1821 8.8952,0.0301 C9.9532,-0.0709 11.1162,0.0561 11.8972,0.7761 C12.8832,1.6871 12.9392,3.2091 12.8272,4.5461 C12.3322,10.4691 9.9302,16.1991 10.1862,22.1371 C10.5562,30.7161 7.8802,39.3061 9.0582,47.8111 C9.1572,48.5311 9.2892,49.2491 9.2992,49.9741 C9.3102,50.6791 9.2052,51.3791 9.1062,52.0771 C8.4232,56.9421 8.0562,61.8461 7.6892,66.7451 C7.6462,67.3241 7.6572,68.1641 8.1042,68.5351" id="Fill-1" fill="#000" mask="url(#mask-2)"></path>
        </g>
    </g>
</svg>