<?xml version="1.0" encoding="UTF-8"?>
<svg width="18px" height="79px" viewBox="0 0 18 79" version="1.1" xmlns="http://www.w3.org/2000/svg" xmlns:xlink="http://www.w3.org/1999/xlink">
    <!-- Generator: Sketch 49.1 (51147) - http://www.bohemiancoding.com/sketch -->
    <title>Page 1</title>
    <desc>Created with Sketch.</desc>
    <defs>
        <polygon id="path-1" points="0.000248568019 -1.97538617e-05 17.3689781 -1.97538617e-05 17.3689781 78.6658 0.000248568019 78.6658"></polygon>
    </defs>
    <g id="Page-1" stroke="none" stroke-width="1" fill="none" fill-rule="evenodd">
        <g>
            <mask id="mask-2" fill="white">
                <use xlink:href="#path-1"></use>
            </mask>
            <g id="Clip-2"></g>
            <path d="M0.295,5.8149 C0.202,4.5239 0.109,3.2329 0.017,1.9429 C-0.015,1.4989 -0.031,1.0039 0.259,0.6679 C0.473,0.4189 0.806,0.3159 1.121,0.2239 C1.622,0.0789 2.146,-0.0681 2.658,0.0339 C3.99,0.2999 4.426,1.9619 4.542,3.3159 C5.273,11.8579 3.994,20.5039 5.072,29.0089 C5.508,32.4489 6.328,35.8489 6.413,39.3149 C7.387,39.9949 8.638,39.0899 9.603,38.3969 C11.122,37.3049 12.959,36.6599 14.827,36.5609 C15.311,36.5359 15.833,36.5569 16.221,36.8469 C16.669,37.1819 16.817,37.7769 16.918,38.3269 C17.785,43.0279 17.396,47.9539 15.802,52.4609 C14.524,56.0759 15.527,60.2979 14.608,64.0219 C14.194,65.6989 13.635,67.3489 13.447,69.0649 C13.22,71.1559 13.55,73.2869 13.206,75.3609 C13.057,76.2529 12.767,77.1559 12.155,77.8229 C11.544,78.4889 10.553,78.8659 9.703,78.5559 C8.581,78.1469 8.141,76.8109 7.946,75.6319 C7.557,73.2759 7.562,70.8719 7.66,68.4839 C7.872,63.3359 8.513,58.2079 9.574,53.1659 C10.116,50.5909 10.771,47.9559 10.341,45.3599 C9.292,46.3189 8.207,47.2999 6.871,47.7879 C5.536,48.2749 3.874,48.1499 2.908,47.1079 C2.452,46.6169 2.194,45.9779 1.976,45.3439 C1.633,44.3479 1.363,43.3109 1.365,42.2559 C1.366,40.8699 2.065,39.4339 2.099,38.0479 C2.129,36.8689 1.955,35.6949 1.802,34.5249 C1.3,30.6939 1.016,26.8379 0.732,22.9859 C0.309,17.2659 0.706,11.5349 0.295,5.8149" id="Fill-1" fill="#000" mask="url(#mask-2)"></path>
        </g>
    </g>
</svg>