<?xml version="1.0" encoding="UTF-8"?>
<svg width="25px" height="76px" viewBox="0 0 25 76" version="1.1" xmlns="http://www.w3.org/2000/svg" xmlns:xlink="http://www.w3.org/1999/xlink">
    <!-- Generator: Sketch 49.1 (51147) - http://www.bohemiancoding.com/sketch -->
    <title>Page 1</title>
    <desc>Created with Sketch.</desc>
    <defs></defs>
    <g id="Page-1" stroke="none" stroke-width="1" fill="none" fill-rule="evenodd">
        <path d="M4.16782897,1.74633727 C4.73982897,16.0043373 6.32482897,30.2203373 8.90782897,44.2533373 C9.08882897,45.2343373 9.54182897,46.4553373 10.539829,46.4663373 C11.275829,46.4743373 11.797829,45.7813373 12.218829,45.1773373 C13.354829,43.5433373 14.698829,42.0033373 16.415829,40.9963373 C18.132829,39.9903373 20.273829,39.5723373 22.148829,40.2403373 C22.779829,40.4653373 23.395829,40.8333373 23.722829,41.4173373 C23.927829,41.7833373 24.004829,42.2073373 24.058829,42.6233373 C24.307829,44.5623373 24.115829,46.5583373 23.501829,48.4143373 C23.021829,49.8643373 22.289829,51.2263373 21.888829,52.7003373 C21.599829,53.7653373 21.488829,54.8683373 21.355829,55.9633373 C20.766829,60.7943373 19.727829,65.5593373 18.689829,70.3143373 C18.366829,71.7983373 18.037829,73.3743373 17.447829,74.7733373 C17.304829,75.1123373 17.145829,75.4623373 16.860829,75.6943373 C16.576829,75.9283373 16.128829,76.0043373 15.846829,75.7683373 C15.627829,75.5873373 15.566829,75.2813373 15.518829,75.0013373 C14.980829,71.8443373 14.441829,68.6423373 14.753829,65.4543373 C14.995829,62.9873373 15.744829,60.5833373 15.881829,58.1073373 C15.945829,56.9643373 15.878829,55.8133373 16.007829,54.6753373 C16.262829,52.4193373 17.280829,50.1603373 16.722829,47.9593373 C16.410829,47.8263373 16.042829,48.0413373 15.871829,48.3343373 C15.699829,48.6273373 15.666829,48.9763373 15.602829,49.3093373 C15.186829,51.4663373 13.239829,53.1453373 11.084829,53.5713373 C9.80282897,53.8243373 8.34282897,53.6373373 7.41882897,52.7123373 C7.07782897,52.3703373 6.82882897,51.9483373 6.60282897,51.5213373 C5.24882897,48.9573373 4.63182897,46.0073373 4.84682897,43.1153373 C5.06082897,40.2403373 4.90482897,37.2433373 4.27682897,34.4303373 C4.03682897,33.3563373 3.72182897,32.3013373 3.47582897,31.2283373 C3.19982897,30.0243373 3.01282897,28.8023373 2.82682897,27.5813373 C2.50082897,25.4493373 2.17582897,23.3183373 1.87782897,21.1833373 C1.04282897,15.1903373 0.426828971,9.16733727 0.0328289705,3.12833727 C-0.00517102948,2.54633727 -0.0401710295,1.95133727 0.110828971,1.38733727 C0.261828971,0.822337272 0.633828971,0.285337272 1.18382897,0.0893372725 C1.59182897,-0.0566627275 2.04282897,0.000337272476 2.46582897,0.0923372725 C3.32082897,0.276337272 4.13282897,0.872337272 4.16782897,1.74633727" fill="#000"></path>
    </g>
</svg>