<?xml version="1.0" encoding="UTF-8"?>
<svg width="7px" height="57px" viewBox="0 0 7 57" version="1.1" xmlns="http://www.w3.org/2000/svg" xmlns:xlink="http://www.w3.org/1999/xlink">
    <!-- Generator: Sketch 49.1 (51147) - http://www.bohemiancoding.com/sketch -->
    <title>Page 1 Copy</title>
    <desc>Created with Sketch.</desc>
    <defs>
        <polygon id="path-1" points="0 4.86361924e-05 6.66185652 4.86361924e-05 6.66185652 56.6996217 0 56.6996217"></polygon>
    </defs>
    <g id="Page-1" stroke="none" stroke-width="1" fill="none" fill-rule="evenodd">
        <g id="Page-1-Copy">
            <mask id="mask-2" fill="white">
                <use xlink:href="#path-1"></use>
            </mask>
            <g id="Clip-2"></g>
            <path d="M0.0328,5.4019 C-0.0962,4.9719 0.1788,4.5399 0.4098,4.1549 C0.8528,3.4179 1.1748,2.6149 1.5248,1.8299 C1.8348,1.1319 2.2328,0.3849 2.9468,0.1139 C3.2828,-0.0141 3.6548,-0.0181 4.0118,0.0239 C4.7288,0.1079 5.5058,0.4599 5.7198,1.1489 C5.7828,1.3519 5.7908,1.5669 5.7988,1.7789 C5.8538,3.3189 5.9088,4.8599 5.8928,6.4009 C5.8868,6.8949 5.8748,7.3939 5.9648,7.8809 C6.0418,8.2959 6.1928,8.6949 6.2588,9.1129 C6.3408,9.6309 6.2908,10.1609 6.2398,10.6839 C6.0178,12.9829 6.4318,15.3299 6.4848,17.6389 C6.5118,18.7929 6.5378,19.9459 6.5378,21.0999 C6.5358,23.8009 6.3868,26.5029 6.4438,29.2029 C6.4898,31.3159 6.3868,33.4599 6.3408,35.5719 C6.3258,36.2559 6.3108,36.9429 6.2088,37.6209 C6.1358,38.1029 6.0188,38.5799 5.9618,39.0649 C5.8898,39.6779 5.9158,40.2979 5.9448,40.9139 C6.0988,44.2199 6.3328,47.5229 6.6478,50.8179 C6.7388,51.7679 6.3768,52.6809 5.8848,53.4999 C5.5768,54.0099 5.1978,54.4739 4.8198,54.9349 C4.2368,55.6479 3.5958,56.3999 2.7078,56.6459 C2.4078,56.7289 2.0508,56.7359 1.8258,56.5199 C1.6998,56.3999 1.6368,56.2279 1.5908,56.0599 C1.4558,55.5719 1.4238,55.0629 1.3928,54.5569 C1.3038,53.1089 1.2148,51.6599 1.1258,50.2119 C1.1018,49.8379 1.0788,49.4639 1.0558,49.0899 C0.9768,47.7919 0.8968,46.4929 0.8168,45.1939 C0.4908,39.8879 0.4728,34.5449 1.0668,29.2629 C1.4338,25.9949 1.1478,22.6819 1.0738,19.3939 C1.0618,18.8789 1.0478,18.3579 0.9168,17.8589 C0.7988,17.4079 0.5888,16.9879 0.4258,16.5509 C0.1038,15.6869 -0.0322,14.7549 0.0308,13.8349 C0.2218,11.0289 0.8428,8.0939 0.0328,5.4019" id="Fill-1" fill="#000" mask="url(#mask-2)"></path>
        </g>
    </g>
</svg>