<?xml version="1.0" encoding="UTF-8"?>
<svg width="171px" height="30px" viewBox="0 0 171 30" version="1.1" xmlns="http://www.w3.org/2000/svg" xmlns:xlink="http://www.w3.org/1999/xlink">
    <!-- Generator: Sketch 49.1 (51147) - http://www.bohemiancoding.com/sketch -->
    <title>Page 1</title>
    <desc>Created with Sketch.</desc>
    <defs></defs>
    <g id="Page-1" stroke="none" stroke-width="1" fill="none" fill-rule="evenodd">
        <g transform="translate(1.000000, 0.000000)" fill="#000000" id="Combined-Shape" stroke="#000000">
            <path d="M23.0287,12.253 C23.2297,12.05 23.5697,11.99 23.8557,12.004 C26.4377,12.131 28.9847,12.343 31.5627,12.544 C32.4717,12.614 33.3817,12.686 34.2917,12.756 C35.3317,12.837 36.3727,12.918 37.4067,13.064 C39.6117,13.373 41.8157,13.976 44.0287,13.741 C44.4227,13.7 44.8157,13.632 45.2097,13.663 C45.5637,13.691 45.9047,13.799 46.2487,13.889 C47.4227,14.197 48.6377,14.312 49.8487,14.406 C53.3997,14.684 56.9037,14.842 60.4647,14.799 C62.0197,14.899 63.5547,15.192 65.1017,15.374 C67.2537,15.626 69.4227,15.662 71.5887,15.697 C72.1647,15.707 72.7407,15.717 73.3167,15.727 L81.1317,15.856 C83.7307,15.899 86.3357,15.933 88.8847,15.421 C92.5587,15.514 96.2327,15.607 99.9057,15.7 C100.3617,15.712 100.8187,15.723 101.2737,15.712 C101.8817,15.697 102.4867,15.643 103.0937,15.616 C104.5377,15.553 105.9837,15.649 107.4257,15.745 C111.0157,15.984 114.5797,16.251 118.1767,16.34 C122.1867,16.438 126.2007,16.536 130.2077,16.347 C133.0407,16.213 135.8197,15.854 138.6127,16.345 C143.1347,16.308 147.6307,17.285 152.1507,17.11 C153.0097,17.077 153.8677,17.002 154.7287,16.998 C155.6597,16.993 156.5887,17.07 157.5167,17.149 C160.2427,17.376 162.9697,17.604 165.6957,17.832 C166.3227,17.884 166.9647,17.94 167.5407,18.192 C168.1177,18.445 168.6287,18.937 168.7337,19.558 C168.8477,20.233 168.4027,20.958 167.7487,21.162 C167.4217,21.264 167.0717,21.246 166.7307,21.227 C165.6757,21.167 164.6217,21.107 163.5677,21.048 C163.2447,21.029 162.9217,21.012 162.5977,20.993 C160.2937,20.863 157.8917,20.198 155.6247,20.633 C153.4817,21.042 151.2877,20.234 149.1077,20.334 C148.2357,20.373 147.3767,20.559 146.5067,20.635 C145.5657,20.716 144.6177,20.67 143.6747,20.623 C138.5877,20.371 133.4117,19.723 128.3197,19.843 C125.0497,19.92 121.7807,19.997 118.5117,20.075 C116.7757,20.116 115.0377,20.157 113.3007,20.111 C112.3457,20.086 111.3917,20.035 110.4387,19.983 C108.5377,19.882 106.5377,20.118 104.6637,19.787 C103.2857,19.543 101.8727,19.93 100.4757,19.845 C99.8277,19.806 99.1917,19.666 98.5527,19.552 C95.7467,19.05 92.8777,19.042 90.0267,19.034 C87.6327,19.028 85.2367,19.023 82.8517,19.231 C81.7117,19.33 80.5747,19.479 79.4307,19.505 C77.8177,19.542 76.1037,19.439 74.5087,19.194 C72.2957,18.856 70.0397,19.116 67.8007,19.089 C65.2667,19.059 62.7497,18.658 60.2157,18.596 C57.5287,18.53 54.7267,18.881 52.0837,18.391 C51.1027,18.798 49.9917,18.47 48.9317,18.406 C48.0757,18.356 47.2217,18.482 46.3677,18.551 C44.0377,18.737 41.6977,18.487 39.3737,18.238 C38.4407,18.138 37.5057,18.037 36.5817,17.871 C35.8397,17.737 35.1057,17.561 34.3587,17.456 C31.4427,17.048 28.4797,17.746 25.5397,17.587 C23.3177,17.466 21.0817,16.895 18.8607,17.032 C19.6047,17.772 20.6337,18.162 21.4057,18.872 C21.7527,19.191 22.0407,19.569 22.3767,19.9 C22.7107,20.23 23.0897,20.51 23.4397,20.822 C24.2967,21.589 24.9657,22.539 25.6277,23.482 C25.7827,23.701 25.9387,23.925 26.0357,24.176 C26.3727,25.056 25.9137,26.028 25.4057,26.821 C24.8727,27.654 24.2167,28.486 23.2827,28.81 C22.3057,29.147 21.2117,28.852 20.3107,28.345 C19.4107,27.838 18.6397,27.131 17.7807,26.557 C16.3627,25.609 15.0327,24.524 13.5467,23.691 C12.9247,23.342 12.2977,22.988 11.7767,22.503 C11.4427,22.192 11.1557,21.829 10.7887,21.559 C10.3577,21.241 9.8397,21.069 9.3547,20.844 C7.9687,20.2 6.7797,19.095 5.2837,18.785 C4.7067,18.665 4.1117,18.672 3.5247,18.629 C2.6347,18.565 1.7537,18.384 0.9097,18.094 C0.8087,18.06 0.7047,18.021 0.6277,17.946 C0.4407,17.766 0.4847,17.453 0.5957,17.218 C0.9047,16.563 1.5727,16.168 2.1937,15.795 C3.3967,15.071 4.5607,14.284 5.7227,13.497 C7.5087,12.289 9.2947,11.08 11.0797,9.872 C11.4777,9.604 11.8757,9.334 12.2527,9.036 C12.9787,8.463 13.7417,7.931 14.5597,7.496 C17.6977,5.83 20.6067,3.731 23.1777,1.276 C23.5277,0.943 23.9037,0.585 24.3827,0.514 C24.7617,0.456 25.1437,0.591 25.4917,0.754 C26.2317,1.1 26.9147,1.582 27.7017,1.8 C28.1767,1.932 28.6757,1.962 29.1527,2.091 C29.4107,2.16 29.7187,2.373 29.6197,2.622 C29.5947,2.685 29.5467,2.734 29.4987,2.781 C27.9607,4.316 25.8587,5.143 24.1497,6.484 C23.5837,6.929 23.0607,7.429 22.4617,7.826 C22.0077,8.127 21.5147,8.365 21.0527,8.653 C20.2697,9.141 19.5767,9.772 19.0177,10.504 C19.9427,10.924 20.8667,11.343 21.7907,11.763 C22.1957,11.946 22.6017,12.13 23.0287,12.253 Z M12.6879,19.0216 C12.4669,18.9766 12.0969,18.6956 11.8819,18.7356 C11.6149,18.7846 11.8459,19.1776 11.9199,19.3246 C12.1669,19.8036 12.5669,20.1886 12.9709,20.5376 C13.5639,21.0506 14.1929,21.5236 14.8499,21.9536 C14.9339,22.0066 15.0179,22.0616 15.1119,22.0956 C15.2669,22.1526 15.4369,22.1516 15.6009,22.1676 C16.0579,22.2096 16.4919,22.3796 16.9179,22.5486 C17.7669,22.8856 18.6149,23.2226 19.4639,23.5586 C19.6139,23.6186 19.7659,23.6786 19.9229,23.7166 C20.1259,23.7656 20.3559,23.7726 20.5269,23.6516 C20.5499,23.6346 20.5729,23.6146 20.5829,23.5866 C20.5909,23.5636 20.5879,23.5366 20.5839,23.5116 C20.5169,23.1096 20.1589,22.8296 19.8239,22.5956 C19.0039,22.0266 18.1589,21.4886 17.4049,20.8336 C17.1379,20.6016 16.8799,20.3536 16.5779,20.1676 C15.8169,19.6996 14.8669,19.6756 14.0389,19.3426 C13.8059,19.2496 13.5789,19.1296 13.3319,19.0846 C13.1199,19.0466 12.8989,19.0646 12.6879,19.0216 Z"></path>
        </g>
    </g>
</svg>