<?xml version="1.0" encoding="UTF-8"?>
<svg width="38px" height="109px" viewBox="0 0 38 109" version="1.1" xmlns="http://www.w3.org/2000/svg" xmlns:xlink="http://www.w3.org/1999/xlink">
    <!-- Generator: Sketch 49.1 (51147) - http://www.bohemiancoding.com/sketch -->
    <title>Page 1</title>
    <desc>Created with Sketch.</desc>
    <defs></defs>
    <g id="Page-1" stroke="none" stroke-width="1" fill="none" fill-rule="evenodd">
        <g transform="translate(1.000000, 1.000000)">
            <path d="M6.71454364,14.6043352 C6.6559743,15.2157765 6.35085591,15.7707075 6.05243116,16.3058599 C4.75163393,18.635779 3.4513945,20.9651329 2.15115508,23.295052 C1.94421007,23.6663245 1.73670725,24.0387273 1.56992407,24.4303436 C1.40648771,24.8134833 1.28377099,25.2147064 1.09467568,25.5859789 C0.807964801,26.1499516 0.378456282,26.6297239 0.0895141876,27.1925663 C0.0376384833,27.2931546 -0.010332598,27.4033497 0.00193907395,27.5163703 C0.0203465819,27.6836407 0.162028613,27.8040076 0.293112382,27.9068563 C0.811311621,28.3131653 1.33062647,28.7200393 1.84882571,29.1263483 C2.26606255,29.4535428 2.6838572,29.7807374 3.13288884,30.0621586 C3.5702066,30.3356684 4.03485673,30.5645351 4.51791436,30.7431076 C4.91228127,30.888339 5.33230714,31.0019247 5.74842838,30.9442842 C5.83377228,30.932417 5.92134739,30.9120733 5.99218841,30.8612141 C6.08087913,30.7973574 6.13275483,30.6939436 6.18128371,30.5950506 C7.33593649,28.2713477 9.13206302,26.3155267 10.2220106,23.960178 C10.6448255,23.0458416 10.9555219,22.0834715 11.2645449,21.1239268 C11.168045,24.0799798 11.4982645,27.0156891 11.8468915,29.9525287 C11.9026719,30.4221291 11.9595678,30.8917296 11.9785331,31.3641556 C12.001403,31.9394303 11.967377,32.514705 11.9495273,33.0899797 C11.9233106,33.9319829 11.9311198,34.7751164 11.9383713,35.6182499 C11.9606834,38.1346529 11.9829955,40.6510559 12.0053077,43.1674589 C12.0248308,45.3561022 11.7554118,47.5622637 12.0839579,49.7260425 C12.1352758,50.0662345 12.2038856,50.4047311 12.2245244,50.7483136 C12.2512989,51.1975704 12.1955186,51.6468271 12.1581458,52.0955188 C11.9450649,54.6559998 12.330507,57.2238272 12.7148334,59.7633994 C12.9396282,61.2490548 13.1644229,62.7341451 13.3892176,64.2198005 C13.6569632,65.9902677 13.4187812,67.7855995 13.7177637,69.5504157 C13.870044,70.4500594 14.0820093,71.3389662 14.2125352,72.2425657 C14.4150178,73.650802 14.4166912,75.0833377 14.6230784,76.491574 C14.8205408,77.8365188 15.202636,79.1458621 15.4820955,80.4761142 C16.1826964,83.8085257 16.2340143,87.2415256 16.2825432,90.6479656 C16.3137801,92.8693849 16.9223435,95.0518121 17.6023057,97.1636014 C17.754586,97.6343321 17.9102131,98.1073232 17.9804963,98.5978325 C18.0597044,99.1510682 18.0290252,99.7156059 18.1110223,100.267711 C18.2236985,101.023254 18.5438776,101.730198 18.707314,102.476698 C18.8082764,102.941778 18.848996,103.422116 18.9973717,103.875328 C19.1457473,104.327975 19.4257646,104.766495 19.8575043,104.955805 C20.1263655,105.073911 20.4270215,105.085213 20.7187526,105.113468 C22.2783705,105.26209 23.751529,105.937953 25.0539996,106.819514 C25.2905082,106.979438 25.6770659,107.113367 25.8008982,106.853985 C25.875086,106.699712 25.7797017,106.52227 25.6999358,106.370822 C25.3356903,105.683092 25.2615024,104.882906 25.1192626,104.116062 C24.7946211,102.369894 24.0873265,100.704536 23.8909798,98.9391546 C23.8418931,98.4966791 23.8246012,98.0485525 23.7292168,97.6134233 C23.6232342,97.128 23.4213094,96.6697015 23.2623355,96.1989709 C22.5790265,94.1770329 22.7034166,91.9793479 22.8350582,89.8466497 C22.9521969,87.9597713 22.8925119,85.9853019 22.8657374,84.0950329 C22.8612749,83.7949633 22.8568125,83.4931983 22.8049368,83.1970845 C22.7385582,82.81564 22.5952028,82.4522789 22.4752751,82.0838318 C22.2337463,81.3367659 22.0881596,80.5620099 21.9431308,79.7900794 C21.7746742,78.8904356 21.6062176,77.9902268 21.4372032,77.0911481 C21.1242756,75.4235296 20.8107901,73.744044 20.7990762,72.046475 C20.7957294,71.4163853 20.8331022,70.782905 20.7505474,70.1579013 C20.6758017,69.5950588 20.5039983,69.0502997 20.3807238,68.4964989 C19.9785476,66.6859093 20.0912239,64.8035517 20.2061314,62.9505795 C20.3796082,60.1527553 19.3186664,57.4990323 19.0894092,54.7045987 C18.9109122,52.5283876 18.8724237,50.3261818 18.3776522,48.20083 C18.2242563,47.5436153 18.0279096,46.8926169 17.9693402,46.2207096 C17.9024039,45.4521697 18.0184269,44.6819345 18.0569154,43.9116993 C18.1840945,41.3947312 17.485167,38.8613751 17.8555484,36.3692715 C18.1026552,34.7106947 18.1891147,32.9803497 18.165687,31.3031245 C18.1433749,29.6705423 18.0016928,28.0419159 17.8605686,26.4149848 C17.7066149,24.6416921 17.5526612,22.8683993 17.3987075,21.0945415 C17.1945515,18.7431485 16.9903955,16.3714118 17.2676237,14.0273652 C17.3049966,13.7126029 17.4589503,13.3079893 17.7696467,13.344721 C17.9933258,13.3707157 18.1104645,13.6193609 18.196924,13.8301443 C18.9750595,15.7249342 20.5056717,17.180074 21.9927752,18.5736176 C23.8865174,20.3486057 25.7802595,22.1230287 27.6745594,23.8974516 C27.9780043,24.1822634 28.2864696,24.4704659 28.6529463,24.6654264 C29.4260616,25.0779515 30.3620555,25.0287875 31.1792373,25.3429847 C31.6924163,25.5396405 32.2011329,25.8843532 32.7394131,25.7798092 C33.2057366,25.6888277 33.5404186,25.284214 33.8204358,24.8954232 C34.5093229,23.9403994 35.1111926,22.9209539 35.6171202,21.8546048 C35.9021576,21.2555958 36.1570737,20.5492172 35.8820767,19.9451223 C35.6087531,19.3455481 34.9276753,19.0856008 34.3341726,18.8115259 C32.8649188,18.1322723 31.6098614,17.0501004 30.4964861,15.8650797 C29.7066367,15.0247717 28.9775878,14.1256931 28.3165909,13.1780156 C26.86184,11.0905257 24.8197222,9.59695885 23.212691,7.6264452 C21.885677,5.99951409 20.553085,4.36467154 19.4832183,2.55408201 C19.1725219,2.02910146 18.8780018,1.48038659 18.4339904,1.06503599 C17.6876496,0.365438664 16.628939,0.138267317 15.6181995,0.0275071584 C15.3761128,0.000947324328 15.1284482,-0.0199614812 14.890824,0.0320279812 C14.1344428,0.19816822 13.7250152,1.01700225 13.4745615,1.75841719 C13.3780615,2.04266393 13.288813,2.33199659 13.1398795,2.5913788 C12.9351657,2.94682849 12.6289317,3.22881481 12.3829405,3.55657447 C12.1218886,3.90411272 11.9316776,4.30024982 11.7431401,4.6929963 C11.1568889,5.91474867 10.5717533,7.13537083 9.98550203,8.35655809 C9.8270859,8.68714326 9.66755416,9.01998884 9.45503111,9.31723294 C9.11811794,9.78852871 8.65904585,10.1586711 8.32157487,10.6288367 C7.46590465,11.8206386 6.85566787,13.1373282 6.71454364,14.6043352" id="Fill-1" fill="#000"></path>
            <path d="M6.71454364,14.6043352 C6.6559743,15.2157765 6.35085591,15.7707075 6.05243116,16.3058599 C4.75163393,18.635779 3.4513945,20.9651329 2.15115508,23.295052 C1.94421007,23.6663245 1.73670725,24.0387273 1.56992407,24.4303436 C1.40648771,24.8134833 1.28377099,25.2147064 1.09467568,25.5859789 C0.807964801,26.1499516 0.378456282,26.6297239 0.0895141876,27.1925663 C0.0376384833,27.2931546 -0.010332598,27.4033497 0.00193907395,27.5163703 C0.0203465819,27.6836407 0.162028613,27.8040076 0.293112382,27.9068563 C0.811311621,28.3131653 1.33062647,28.7200393 1.84882571,29.1263483 C2.26606255,29.4535428 2.6838572,29.7807374 3.13288884,30.0621586 C3.5702066,30.3356684 4.03485673,30.5645351 4.51791436,30.7431076 C4.91228127,30.888339 5.33230714,31.0019247 5.74842838,30.9442842 C5.83377228,30.932417 5.92134739,30.9120733 5.99218841,30.8612141 C6.08087913,30.7973574 6.13275483,30.6939436 6.18128371,30.5950506 C7.33593649,28.2713477 9.13206302,26.3155267 10.2220106,23.960178 C10.6448255,23.0458416 10.9555219,22.0834715 11.2645449,21.1239268 C11.168045,24.0799798 11.4982645,27.0156891 11.8468915,29.9525287 C11.9026719,30.4221291 11.9595678,30.8917296 11.9785331,31.3641556 C12.001403,31.9394303 11.967377,32.514705 11.9495273,33.0899797 C11.9233106,33.9319829 11.9311198,34.7751164 11.9383713,35.6182499 C11.9606834,38.1346529 11.9829955,40.6510559 12.0053077,43.1674589 C12.0248308,45.3561022 11.7554118,47.5622637 12.0839579,49.7260425 C12.1352758,50.0662345 12.2038856,50.4047311 12.2245244,50.7483136 C12.2512989,51.1975704 12.1955186,51.6468271 12.1581458,52.0955188 C11.9450649,54.6559998 12.330507,57.2238272 12.7148334,59.7633994 C12.9396282,61.2490548 13.1644229,62.7341451 13.3892176,64.2198005 C13.6569632,65.9902677 13.4187812,67.7855995 13.7177637,69.5504157 C13.870044,70.4500594 14.0820093,71.3389662 14.2125352,72.2425657 C14.4150178,73.650802 14.4166912,75.0833377 14.6230784,76.491574 C14.8205408,77.8365188 15.202636,79.1458621 15.4820955,80.4761142 C16.1826964,83.8085257 16.2340143,87.2415256 16.2825432,90.6479656 C16.3137801,92.8693849 16.9223435,95.0518121 17.6023057,97.1636014 C17.754586,97.6343321 17.9102131,98.1073232 17.9804963,98.5978325 C18.0597044,99.1510682 18.0290252,99.7156059 18.1110223,100.267711 C18.2236985,101.023254 18.5438776,101.730198 18.707314,102.476698 C18.8082764,102.941778 18.848996,103.422116 18.9973717,103.875328 C19.1457473,104.327975 19.4257646,104.766495 19.8575043,104.955805 C20.1263655,105.073911 20.4270215,105.085213 20.7187526,105.113468 C22.2783705,105.26209 23.751529,105.937953 25.0539996,106.819514 C25.2905082,106.979438 25.6770659,107.113367 25.8008982,106.853985 C25.875086,106.699712 25.7797017,106.52227 25.6999358,106.370822 C25.3356903,105.683092 25.2615024,104.882906 25.1192626,104.116062 C24.7946211,102.369894 24.0873265,100.704536 23.8909798,98.9391546 C23.8418931,98.4966791 23.8246012,98.0485525 23.7292168,97.6134233 C23.6232342,97.128 23.4213094,96.6697015 23.2623355,96.1989709 C22.5790265,94.1770329 22.7034166,91.9793479 22.8350582,89.8466497 C22.9521969,87.9597713 22.8925119,85.9853019 22.8657374,84.0950329 C22.8612749,83.7949633 22.8568125,83.4931983 22.8049368,83.1970845 C22.7385582,82.81564 22.5952028,82.4522789 22.4752751,82.0838318 C22.2337463,81.3367659 22.0881596,80.5620099 21.9431308,79.7900794 C21.7746742,78.8904356 21.6062176,77.9902268 21.4372032,77.0911481 C21.1242756,75.4235296 20.8107901,73.744044 20.7990762,72.046475 C20.7957294,71.4163853 20.8331022,70.782905 20.7505474,70.1579013 C20.6758017,69.5950588 20.5039983,69.0502997 20.3807238,68.4964989 C19.9785476,66.6859093 20.0912239,64.8035517 20.2061314,62.9505795 C20.3796082,60.1527553 19.3186664,57.4990323 19.0894092,54.7045987 C18.9109122,52.5283876 18.8724237,50.3261818 18.3776522,48.20083 C18.2242563,47.5436153 18.0279096,46.8926169 17.9693402,46.2207096 C17.9024039,45.4521697 18.0184269,44.6819345 18.0569154,43.9116993 C18.1840945,41.3947312 17.485167,38.8613751 17.8555484,36.3692715 C18.1026552,34.7106947 18.1891147,32.9803497 18.165687,31.3031245 C18.1433749,29.6705423 18.0016928,28.0419159 17.8605686,26.4149848 C17.7066149,24.6416921 17.5526612,22.8683993 17.3987075,21.0945415 C17.1945515,18.7431485 16.9903955,16.3714118 17.2676237,14.0273652 C17.3049966,13.7126029 17.4589503,13.3079893 17.7696467,13.344721 C17.9933258,13.3707157 18.1104645,13.6193609 18.196924,13.8301443 C18.9750595,15.7249342 20.5056717,17.180074 21.9927752,18.5736176 C23.8865174,20.3486057 25.7802595,22.1230287 27.6745594,23.8974516 C27.9780043,24.1822634 28.2864696,24.4704659 28.6529463,24.6654264 C29.4260616,25.0779515 30.3620555,25.0287875 31.1792373,25.3429847 C31.6924163,25.5396405 32.2011329,25.8843532 32.7394131,25.7798092 C33.2057366,25.6888277 33.5404186,25.284214 33.8204358,24.8954232 C34.5093229,23.9403994 35.1111926,22.9209539 35.6171202,21.8546048 C35.9021576,21.2555958 36.1570737,20.5492172 35.8820767,19.9451223 C35.6087531,19.3455481 34.9276753,19.0856008 34.3341726,18.8115259 C32.8649188,18.1322723 31.6098614,17.0501004 30.4964861,15.8650797 C29.7066367,15.0247717 28.9775878,14.1256931 28.3165909,13.1780156 C26.86184,11.0905257 24.8197222,9.59695885 23.212691,7.6264452 C21.885677,5.99951409 20.553085,4.36467154 19.4832183,2.55408201 C19.1725219,2.02910146 18.8780018,1.48038659 18.4339904,1.06503599 C17.6876496,0.365438664 16.628939,0.138267317 15.6181995,0.0275071584 C15.3761128,0.000947324328 15.1284482,-0.0199614812 14.890824,0.0320279812 C14.1344428,0.19816822 13.7250152,1.01700225 13.4745615,1.75841719 C13.3780615,2.04266393 13.288813,2.33199659 13.1398795,2.5913788 C12.9351657,2.94682849 12.6289317,3.22881481 12.3829405,3.55657447 C12.1218886,3.90411272 11.9316776,4.30024982 11.7431401,4.6929963 C11.1568889,5.91474867 10.5717533,7.13537083 9.98550203,8.35655809 C9.8270859,8.68714326 9.66755416,9.01998884 9.45503111,9.31723294 C9.11811794,9.78852871 8.65904585,10.1586711 8.32157487,10.6288367 C7.46590465,11.8206386 6.85566787,13.1373282 6.71454364,14.6043352 Z" ></path>
        </g>
    </g>
</svg>