<?xml version="1.0" encoding="UTF-8"?>
<svg width="43px" height="88px" viewBox="0 0 43 88" version="1.1" xmlns="http://www.w3.org/2000/svg" xmlns:xlink="http://www.w3.org/1999/xlink">
    <!-- Generator: Sketch 49.1 (51147) - http://www.bohemiancoding.com/sketch -->
    <title>Group 5</title>
    <desc>Created with Sketch.</desc>
    <defs>
        <polygon id="path-1" points="0.000248568019 -1.97538617e-05 17.3689781 -1.97538617e-05 17.3689781 78.6658 0.000248568019 78.6658"></polygon>
    </defs>
    <g id="Page-1" stroke="none" stroke-width="1" fill="none" fill-rule="evenodd">
        <g id="Group-5">
            <g id="Page-1" transform="translate(0.000000, 9.000000)">
                <mask id="mask-2" fill="white">
                    <use xlink:href="#path-1"></use>
                </mask>
                <g id="Clip-2"></g>
                <path d="M0.295,5.8149 C0.202,4.5239 0.109,3.2329 0.017,1.9429 C-0.015,1.4989 -0.031,1.0039 0.259,0.6679 C0.473,0.4189 0.806,0.3159 1.121,0.2239 C1.622,0.0789 2.146,-0.0681 2.658,0.0339 C3.99,0.2999 4.426,1.9619 4.542,3.3159 C5.273,11.8579 3.994,20.5039 5.072,29.0089 C5.508,32.4489 6.328,35.8489 6.413,39.3149 C7.387,39.9949 8.638,39.0899 9.603,38.3969 C11.122,37.3049 12.959,36.6599 14.827,36.5609 C15.311,36.5359 15.833,36.5569 16.221,36.8469 C16.669,37.1819 16.817,37.7769 16.918,38.3269 C17.785,43.0279 17.396,47.9539 15.802,52.4609 C14.524,56.0759 15.527,60.2979 14.608,64.0219 C14.194,65.6989 13.635,67.3489 13.447,69.0649 C13.22,71.1559 13.55,73.2869 13.206,75.3609 C13.057,76.2529 12.767,77.1559 12.155,77.8229 C11.544,78.4889 10.553,78.8659 9.703,78.5559 C8.581,78.1469 8.141,76.8109 7.946,75.6319 C7.557,73.2759 7.562,70.8719 7.66,68.4839 C7.872,63.3359 8.513,58.2079 9.574,53.1659 C10.116,50.5909 10.771,47.9559 10.341,45.3599 C9.292,46.3189 8.207,47.2999 6.871,47.7879 C5.536,48.2749 3.874,48.1499 2.908,47.1079 C2.452,46.6169 2.194,45.9779 1.976,45.3439 C1.633,44.3479 1.363,43.3109 1.365,42.2559 C1.366,40.8699 2.065,39.4339 2.099,38.0479 C2.129,36.8689 1.955,35.6949 1.802,34.5249 C1.3,30.6939 1.016,26.8379 0.732,22.9859 C0.309,17.2659 0.706,11.5349 0.295,5.8149" id="Fill-1" fill="#000" mask="url(#mask-2)"></path>
            </g>
            <path d="M22.167829,1.74633727 C22.739829,16.0043373 24.324829,30.2203373 26.907829,44.2533373 C27.088829,45.2343373 27.541829,46.4553373 28.539829,46.4663373 C29.275829,46.4743373 29.797829,45.7813373 30.218829,45.1773373 C31.354829,43.5433373 32.698829,42.0033373 34.415829,40.9963373 C36.132829,39.9903373 38.273829,39.5723373 40.148829,40.2403373 C40.779829,40.4653373 41.395829,40.8333373 41.722829,41.4173373 C41.927829,41.7833373 42.004829,42.2073373 42.058829,42.6233373 C42.307829,44.5623373 42.115829,46.5583373 41.501829,48.4143373 C41.021829,49.8643373 40.289829,51.2263373 39.888829,52.7003373 C39.599829,53.7653373 39.488829,54.8683373 39.355829,55.9633373 C38.766829,60.7943373 37.727829,65.5593373 36.689829,70.3143373 C36.366829,71.7983373 36.037829,73.3743373 35.447829,74.7733373 C35.304829,75.1123373 35.145829,75.4623373 34.860829,75.6943373 C34.576829,75.9283373 34.128829,76.0043373 33.846829,75.7683373 C33.627829,75.5873373 33.566829,75.2813373 33.518829,75.0013373 C32.980829,71.8443373 32.441829,68.6423373 32.753829,65.4543373 C32.995829,62.9873373 33.744829,60.5833373 33.881829,58.1073373 C33.945829,56.9643373 33.878829,55.8133373 34.007829,54.6753373 C34.262829,52.4193373 35.280829,50.1603373 34.722829,47.9593373 C34.410829,47.8263373 34.042829,48.0413373 33.871829,48.3343373 C33.699829,48.6273373 33.666829,48.9763373 33.602829,49.3093373 C33.186829,51.4663373 31.239829,53.1453373 29.084829,53.5713373 C27.802829,53.8243373 26.342829,53.6373373 25.418829,52.7123373 C25.077829,52.3703373 24.828829,51.9483373 24.602829,51.5213373 C23.248829,48.9573373 22.631829,46.0073373 22.846829,43.1153373 C23.060829,40.2403373 22.904829,37.2433373 22.276829,34.4303373 C22.036829,33.3563373 21.721829,32.3013373 21.475829,31.2283373 C21.199829,30.0243373 21.012829,28.8023373 20.826829,27.5813373 C20.500829,25.4493373 20.175829,23.3183373 19.877829,21.1833373 C19.042829,15.1903373 18.426829,9.16733727 18.032829,3.12833727 C17.994829,2.54633727 17.959829,1.95133727 18.110829,1.38733727 C18.261829,0.822337272 18.633829,0.285337272 19.183829,0.0893372725 C19.591829,-0.0566627275 20.042829,0.000337272476 20.465829,0.0923372725 C21.320829,0.276337272 22.132829,0.872337272 22.167829,1.74633727" id="Page-1" fill="#000"></path>
        </g>
    </g>
</svg>